<svg width="32" height="20" viewBox="0 0 32 20" fill="none" xmlns="http://www.w3.org/2000/svg">
<path opacity="0.5" d="M2 8.75C1.30964 8.75 0.75 9.30964 0.75 10C0.75 10.6904 1.30964 11.25 2 11.25V8.75ZM30.8839 10.8839C31.372 10.3957 31.372 9.60427 30.8839 9.11612L22.9289 1.16117C22.4408 0.67301 21.6493 0.67301 21.1612 1.16117C20.673 1.64932 20.673 2.44078 21.1612 2.92893L28.2322 10L21.1612 17.0711C20.673 17.5592 20.673 18.3507 21.1612 18.8388C21.6493 19.327 22.4408 19.327 22.9289 18.8388L30.8839 10.8839ZM2 11.25H30V8.75H2V11.25Z" fill="white"/>
</svg>
