<svg width="24" height="24" viewBox="0 0 24 24" fill="none" xmlns="http://www.w3.org/2000/svg">
<path d="M1.50016 16.5C1.1023 16.5 0.720635 16.658 0.439452 16.9394C0.158256 17.2206 0 17.6023 0 18.0001V19.5C0 20.6936 0.474239 21.838 1.31812 22.6819C2.162 23.5259 3.30662 24 4.50026 24H18.7502C19.9438 24 21.0885 23.526 21.9324 22.6819C22.7762 21.838 23.2505 20.6936 23.2505 19.5V18.0001C23.2505 17.4642 22.9646 16.969 22.5003 16.7009C22.0362 16.433 21.4644 16.433 21.0004 16.7009C20.5364 16.969 20.2505 17.4642 20.2505 18.0001V19.5C20.2505 19.8979 20.0925 20.2793 19.811 20.5607C19.5298 20.8419 19.1482 20.9999 18.7503 20.9999H4.50036C4.1025 20.9999 3.72083 20.8419 3.43965 20.5607C3.15819 20.2793 3.00019 19.8979 3.00019 19.5V18.0001C3.00019 17.6023 2.8422 17.2206 2.561 16.9394C2.27955 16.658 1.89816 16.5 1.50029 16.5H1.50016Z" fill="#247FFF"/>
<path d="M11.6251 1.40506e-05C11.2273 1.40506e-05 10.8459 0.158009 10.5644 0.439205C10.2832 0.720662 10.1252 1.10204 10.1252 1.49992V12.5021L7.87511 10.252C7.62426 9.98937 7.2897 9.82222 6.92897 9.77985C6.568 9.73747 6.20389 9.82222 5.89887 10.0197C5.53292 10.2729 5.29828 10.6755 5.25852 11.1189C5.2185 11.562 5.37754 12.0001 5.69248 12.3145L9.30748 15.9219C9.92323 16.5359 10.7574 16.8806 11.6269 16.8806C12.4964 16.8806 13.3305 16.5358 13.9464 15.9219L17.565 12.3145C17.88 12.0001 18.039 11.562 17.9992 11.1189C17.9595 10.6755 17.7248 10.2729 17.3589 10.0197C17.0539 9.82222 16.6895 9.73747 16.3288 9.77985C15.9681 9.82222 15.6332 9.98937 15.3827 10.252L13.1325 12.5021V1.49992C13.1325 1.10075 12.9735 0.718044 12.6905 0.436594C12.4077 0.155136 12.0242 -0.00207529 11.6251 2.06922e-05L11.6251 1.40506e-05Z" fill="#247FFF"/>
</svg>
