<svg width="95" height="72" viewBox="0 0 95 72" fill="none" xmlns="http://www.w3.org/2000/svg">
<path d="M76.5 18.5455C68.4919 18.5455 62 25.0577 62 33.0909V53.4545C62 61.4878 55.5081 68 47.5 68C39.4919 68 33 61.4878 33 53.4545V33.0909C33 22.3232 38.8319 12.9218 47.5 7.89185C51.7655 5.41664 56.7178 4 62 4C78.0163 4 91 17.0244 91 33.0909C91 25.0577 84.5081 18.5455 76.5 18.5455Z" fill="#F7E01D" stroke="#161819" stroke-width="10"/>
<path d="M76.5 18.5455C68.4919 18.5455 62 25.0577 62 33.0909V53.4545C62 61.4878 68.4919 68 76.5 68C84.5081 68 91 61.4878 91 53.4545V33.0909C91 25.0577 84.5081 18.5455 76.5 18.5455Z" fill="#F7E01D"/>
<path d="M4 33.0909C4 17.0244 16.9837 4 33 4C38.2822 4 43.2345 5.41664 47.5 7.89185C38.8319 12.9218 33 22.3232 33 33.0909V53.4545C33 61.4878 26.5081 68 18.5 68C10.4919 68 4 61.4878 4 53.4545V33.0909Z" fill="#F7E01D"/>
<path d="M76.5 18.5455C68.4919 18.5455 62 25.0577 62 33.0909V53.4545C62 61.4878 68.4919 68 76.5 68C84.5081 68 91 61.4878 91 53.4545V33.0909C91 25.0577 84.5081 18.5455 76.5 18.5455Z" stroke="#161819" stroke-width="10"/>
<path d="M4 33.0909C4 17.0244 16.9837 4 33 4C38.2822 4 43.2345 5.41664 47.5 7.89185C38.8319 12.9218 33 22.3232 33 33.0909V53.4545C33 61.4878 26.5081 68 18.5 68C10.4919 68 4 61.4878 4 53.4545V33.0909Z" stroke="#161819" stroke-width="10"/>
</svg>
