<svg width="187" height="214" viewBox="0 0 187 214" fill="none" xmlns="http://www.w3.org/2000/svg">
<g clip-path="url(#clip0_12_1255)">
<path opacity="0.15" d="M97.1922 214.714C141.749 214.714 177.87 209.11 177.87 202.198C177.87 195.285 141.749 189.682 97.1922 189.682C52.635 189.682 16.5143 195.285 16.5143 202.198C16.5143 209.11 52.635 214.714 97.1922 214.714Z" fill="black"/>
<path d="M91.7879 195.511C142.481 195.511 183.576 154.541 183.576 104.003C183.576 53.4641 142.481 12.4945 91.7879 12.4945C41.0949 12.4945 0 53.4641 0 104.003C0 154.541 41.0949 195.511 91.7879 195.511Z" fill="#FF2261"/>
<path d="M185.769 179.078C185.769 179.078 173.807 205.051 114.393 185.82C114.393 185.82 93.959 116.84 132.323 106.432C132.323 106.432 142.966 104.973 152.32 122.825C161.361 140.077 156.752 134.518 166.303 153.869C166.632 154.537 166.979 155.235 167.343 155.964C167.343 155.964 168.529 158.837 170.672 162.624C171.716 164.463 172.985 166.517 174.456 168.56C177.311 172.533 180.924 176.475 185.11 178.736C185.328 178.857 185.547 178.971 185.769 179.078Z" fill="#00A4FF"/>
<g opacity="0.3">
<path opacity="0.3" d="M185.769 179.078C185.769 179.078 173.807 205.051 114.393 185.82C114.393 185.82 93.959 116.84 132.323 106.432C132.323 106.432 142.966 104.973 152.32 122.825C161.361 140.077 156.752 134.518 166.303 153.869C165.633 154.44 165.259 154.751 165.259 154.751C165.259 154.751 155.971 145.519 150.288 133.888C144.919 122.899 131.889 118.388 124.825 136.778C123.704 139.699 123.881 143.003 125.479 145.695C125.986 146.549 126.627 147.369 127.436 148.036C128.379 148.813 129.324 150.036 130.189 151.378C134.553 158.143 141.257 163.122 149.117 164.931C155.672 166.44 163.474 166.623 170.672 162.623C172.666 161.517 174.618 160.085 176.48 158.274C193.984 141.256 176.48 166.817 176.48 166.817C176.48 166.817 175.766 167.537 174.455 168.56C169.662 172.297 156.907 180.07 142.172 171.222C141.173 170.622 139.953 170.437 138.849 170.808C137.414 171.29 136.132 172.661 137.763 176.412C140.367 182.397 161.547 195.815 185.108 178.736C185.327 178.857 185.545 178.971 185.767 179.078H185.769Z" fill="#000072"/>
</g>
<g opacity="0.3">
<path opacity="0.3" d="M164.221 184.56C163.146 183.889 162.18 183.051 161.252 182.183C160.33 181.306 159.452 180.378 158.626 179.407C156.981 177.458 155.486 175.377 154.131 173.21C152.769 171.046 151.532 168.802 150.401 166.507C150.119 165.932 149.835 165.358 149.569 164.776C149.297 164.196 149.028 163.616 148.773 163.028C148.513 162.444 148.256 161.857 148.012 161.265C147.765 160.675 147.51 160.086 147.309 159.48C147.101 158.877 146.934 158.249 146.762 157.657L146.246 155.856C145.881 154.66 145.531 153.459 145.14 152.268C144.388 149.878 143.552 147.512 142.722 145.139C141.888 142.767 141.01 140.408 140.097 138.06C139.203 135.703 138.261 133.365 137.295 131.031C139.836 135.401 142.159 139.899 144.347 144.468C145.441 146.754 146.48 149.067 147.473 151.405C147.981 152.569 148.45 153.752 148.933 154.929L149.63 156.708C149.861 157.309 150.099 157.875 150.295 158.466C151.707 163.225 153.347 167.945 155.565 172.411C156.662 174.649 157.903 176.82 159.31 178.886C160.014 179.918 160.76 180.925 161.567 181.886C162.378 182.84 163.231 183.772 164.221 184.558V184.56Z" fill="#000072"/>
</g>
<g opacity="0.3">
<path opacity="0.3" d="M141.648 185.04C140.573 184.369 139.607 183.532 138.679 182.663C137.757 181.787 136.88 180.859 136.053 179.888C134.408 177.939 132.913 175.857 131.559 173.69C130.196 171.527 128.96 169.282 127.828 166.987C127.546 166.413 127.262 165.838 126.997 165.257C126.725 164.677 126.455 164.096 126.201 163.509C125.94 162.924 125.683 162.337 125.439 161.746C125.193 161.155 124.938 160.566 124.736 159.96C124.528 159.358 124.361 158.73 124.189 158.137L123.674 156.336C123.308 155.141 122.958 153.939 122.567 152.749C121.816 150.358 120.98 147.992 120.149 145.619C119.315 143.247 118.437 140.888 117.525 138.54C116.63 136.184 115.688 133.846 114.722 131.512C117.264 135.881 119.586 140.379 121.774 144.949C122.868 147.234 123.907 149.547 124.901 151.885C125.408 153.049 125.877 154.232 126.361 155.409L127.057 157.188C127.289 157.789 127.526 158.355 127.723 158.946C129.135 163.706 130.775 168.425 132.993 172.891C134.09 175.129 135.331 177.3 136.738 179.367C137.442 180.399 138.188 181.406 138.995 182.366C139.807 183.321 140.66 184.252 141.65 185.039L141.648 185.04Z" fill="#000072"/>
</g>
<path d="M152.85 194.158C141.793 194.158 128.811 191.76 114.017 186.972C113.636 186.849 113.341 186.547 113.228 186.164C113.196 186.057 110.039 175.306 108.538 161.839C106.509 143.646 108.291 129.401 113.833 119.5C117.909 112.219 124.022 107.43 132.004 105.264C132.054 105.25 132.106 105.241 132.157 105.234C132.626 105.169 143.756 103.871 153.394 122.264C158.067 131.181 159.124 134.058 160.349 137.389C161.567 140.704 162.949 144.462 168.428 155.424C168.441 155.45 168.453 155.477 168.464 155.504C168.535 155.676 175.7 172.78 186.305 177.995C186.894 178.285 187.145 178.989 186.871 179.585C186.74 179.868 183.553 186.569 172.805 190.788C167.08 193.036 160.415 194.159 152.849 194.159L152.85 194.158ZM115.385 184.869C145.167 194.402 162.428 192.186 171.68 188.628C179.252 185.715 182.8 181.455 184.079 179.551C173.472 173.47 166.714 157.611 166.237 156.466C160.714 145.413 159.31 141.592 158.071 138.222C156.875 134.97 155.843 132.162 151.243 123.385C142.831 107.332 133.409 107.57 132.543 107.628C125.264 109.628 119.684 114.018 115.956 120.678C104.132 141.795 113.934 179.613 115.385 184.87L115.385 184.869Z" fill="#000072"/>
<path d="M137.294 112.716C137.294 112.716 144.156 114.097 151.439 129.474C158.722 144.851 167.342 155.964 167.342 155.964C167.342 155.964 158.276 132.34 155.601 122.296C152.925 112.251 142.917 99.4013 137.294 112.716Z" fill="#00A4FF"/>
<path d="M167.343 157.174C166.978 157.174 166.619 157.01 166.382 156.704C166.295 156.592 157.597 145.309 150.342 129.99C143.497 115.539 137.102 113.914 137.038 113.899C136.689 113.819 136.385 113.587 136.222 113.269C136.059 112.951 136.037 112.576 136.176 112.247C138.535 106.661 141.608 105.665 143.765 105.817C149.241 106.196 154.782 114.505 156.774 121.985C159.403 131.852 168.386 155.296 168.477 155.531C168.692 156.092 168.462 156.725 167.937 157.019C167.75 157.123 167.546 157.174 167.344 157.174H167.343ZM138.934 112.053C141.438 113.26 146.925 117.11 152.536 128.957C155.993 136.255 159.78 142.62 162.776 147.256C159.909 139.489 156.044 128.676 154.427 122.605C152.682 116.054 147.679 108.514 143.595 108.231C141.836 108.105 140.272 109.393 138.934 112.053Z" fill="#000072"/>
<path d="M65.2714 184.656C24.9761 200.968 22.2705 186.222 22.1013 184.77C22.1013 184.752 22.0977 184.735 22.0977 184.721C22.0942 184.677 22.0942 184.656 22.0942 184.656C32.6265 171.51 35.6784 159.616 36.5283 152.926C36.9827 149.351 36.8057 147.259 36.8057 147.259L46.3498 141.506L58.9906 133.889C58.9906 133.889 66.7485 139.255 73.3657 146.796C83.3122 158.126 90.6851 174.366 65.2714 184.656Z" fill="#00A4FF"/>
<g opacity="0.3">
<path opacity="0.3" d="M65.2714 184.655C24.9761 200.968 22.2705 186.222 22.1013 184.77C22.1013 184.752 22.0977 184.735 22.0977 184.721C22.0942 184.677 22.0942 184.655 22.0942 184.655C22.0942 184.655 27.3706 188.432 34.759 187.94C38.7422 187.674 41.7344 184.201 41.431 180.232C41.0987 175.891 41.4612 169.649 44.8094 163.666C46.6251 160.423 45.1023 156.354 41.5876 155.123C39.8548 154.517 38.0813 153.784 36.5283 152.926C36.9827 149.351 36.8057 147.259 36.8057 147.259L46.3498 141.506C53.8407 139.85 61.8381 139.196 63.6657 140.551C64.9384 141.495 68.8051 143.901 73.3657 146.795C83.3122 158.125 90.6851 174.365 65.2714 184.655V184.655Z" fill="#000072"/>
</g>
<path d="M35.2787 193.511C31.0644 193.511 27.6782 192.704 25.1349 191.087C21.1151 188.531 20.8882 184.869 20.8798 184.714C20.8651 184.42 20.9592 184.13 21.1439 183.899C36.7776 164.39 35.611 147.525 35.5976 147.356C35.5604 146.9 35.7859 146.458 36.1792 146.221L58.3627 132.851C58.7722 132.603 59.2891 132.62 59.6825 132.893C60.7396 133.624 85.5542 151.003 83.6943 167.715C82.8598 175.211 76.8151 181.287 65.7272 185.775C53.0007 190.927 42.8167 193.51 35.2794 193.51L35.2787 193.511ZM23.3698 184.996C23.5482 185.802 24.1979 187.653 26.5172 189.094C30.9359 191.841 41.1654 193.107 64.8127 183.533C75.0107 179.404 80.5511 173.994 81.2802 167.45C82.8289 153.562 62.7863 138.16 58.9309 135.336L38.0532 147.921C38.1431 151.52 37.61 167.002 23.3698 184.996Z" fill="#000072"/>
<path d="M185.631 139.874C184.67 153.272 178.503 167.855 162.887 171.151C155.483 172.714 147.808 170.756 141.784 166.189C138.455 163.666 133.842 161.269 129.181 162.351C129.181 162.351 126.376 161.701 126.718 156.761C126.718 156.761 127.814 155.436 130.076 154.617C132.729 153.659 136.988 153.39 142.967 156.761C151.984 161.843 169.574 163.949 167.531 140.742C167.177 136.741 166.245 131.984 164.58 126.362C163.009 121.058 166.075 115.388 171.457 114.067C172.092 113.912 172.747 113.815 173.424 113.801C175.581 113.746 177.939 114.489 180.384 116.585C183.96 119.648 186.388 129.398 185.631 139.874H185.631Z" fill="white"/>
<path d="M185.63 139.874C178.281 143.809 172.018 142.806 167.531 140.742C167.177 136.741 166.244 131.984 164.579 126.362C163.008 121.058 166.074 115.388 171.456 114.067C174.106 113.414 177.168 113.832 180.383 116.585C183.959 119.648 186.386 129.398 185.63 139.874H185.63Z" fill="#FFA300"/>
<g opacity="0.3">
<path opacity="0.3" d="M185.63 139.874C184.67 153.272 178.503 167.855 162.887 171.151C155.483 172.714 147.808 170.756 141.784 166.189C138.455 163.666 133.842 161.269 129.181 162.351C129.181 162.351 126.376 161.701 126.718 156.761C126.718 156.761 127.814 155.436 130.076 154.617C130.381 155.115 130.688 155.659 130.959 156.221C131.623 157.591 132.959 158.504 134.471 158.705C136.187 158.933 138.616 159.731 141.367 162.04C146.151 166.051 163.341 172.308 173.929 158.05C176.226 154.957 177.759 151.37 178.553 147.604C180.286 139.385 182.951 120.747 173.422 113.802C175.579 113.747 177.938 114.49 180.383 116.585C183.959 119.649 186.386 129.399 185.63 139.875L185.63 139.874Z" fill="#000072"/>
</g>
<path d="M157.787 172.891C151.891 172.891 146.001 170.905 141.048 167.153C138.139 164.948 133.767 162.528 129.456 163.528L129.181 163.592L128.906 163.529C128.75 163.493 125.098 162.582 125.508 156.676L125.536 156.288L125.784 155.988C126.022 155.701 131.742 149.04 143.564 155.705C149.08 158.815 157.209 160.424 162.025 156.607C167.453 152.306 167.932 141.966 163.413 126.704C162.55 123.787 162.923 120.606 164.438 117.975C165.921 115.398 168.312 113.592 171.167 112.891C174.656 112.033 178.023 112.968 181.175 115.667C186.116 119.897 188.974 135.022 185.404 148.931C182.131 161.683 174.224 169.995 163.137 172.335C161.371 172.707 159.578 172.891 157.786 172.891H157.787ZM131.512 160.877C134.972 160.877 138.726 162.351 142.518 165.225C148.412 169.692 155.745 171.419 162.635 169.966C175.624 167.225 180.908 156.688 183.053 148.331C186.3 135.675 183.816 121.118 179.594 117.503C177.071 115.343 174.431 114.582 171.749 115.241C169.544 115.783 167.696 117.181 166.544 119.18C165.358 121.241 165.066 123.733 165.742 126.019C170.634 142.538 169.891 153.467 163.537 158.502C157.81 163.04 148.778 161.426 142.37 157.812C133.596 152.865 129.013 156.238 127.91 157.272C127.827 159.966 128.846 160.838 129.291 161.089C130.015 160.948 130.756 160.877 131.512 160.877V160.877Z" fill="#000072"/>
<path d="M49.0651 36.1628L27.0671 77.3176L26.3043 78.7419C5.71734 61.2918 11.4193 34.8043 14.2731 25.5001C14.7381 23.9757 16.0277 22.9141 17.5259 22.6579C18.0077 22.578 18.5106 22.578 19.0135 22.6754C19.8079 22.8273 20.5981 22.9933 21.3785 23.1767C35.0638 26.3783 46.3799 34.2133 48.6479 35.8554C48.9219 36.0557 49.0644 36.1628 49.0644 36.1628H49.0651Z" fill="white"/>
<path d="M48.6487 35.8554C45.7527 38.4281 41.9381 39.9903 37.7553 39.9903C28.7037 39.9903 21.3687 32.6777 21.3687 23.6536C21.3687 23.4946 21.3722 23.3357 21.3792 23.1767C35.0645 26.3783 46.3806 34.2133 48.6487 35.8554Z" fill="#FFA300"/>
<g opacity="0.3">
<path opacity="0.3" d="M49.0652 36.1628L27.0671 77.3176C19.8642 57.9726 30.8579 48.2574 30.1956 36.931C29.7966 30.0503 23.1555 25.393 17.5266 22.6585C18.0084 22.5787 18.5114 22.5787 19.0143 22.6761C19.8087 22.828 20.5989 22.994 21.3792 23.1774C35.0645 26.379 46.3807 34.214 48.6487 35.8561C48.9226 36.0564 49.0652 36.1635 49.0652 36.1635V36.1628Z" fill="#000072"/>
</g>
<path d="M26.3029 79.9541C26.0171 79.9541 25.7382 79.8532 25.5163 79.6656C16.4049 71.9411 11.281 61.679 10.2871 49.1629C9.47445 38.9246 11.708 29.7205 13.1121 25.1458C13.9093 22.5486 16.5447 20.9752 19.2383 21.4856C35.7353 24.6094 49.2359 34.7707 49.802 35.2021C50.2747 35.562 50.4166 36.2097 50.137 36.7335L27.3734 79.3126C27.2006 79.6361 26.8901 79.8637 26.5291 79.9323C26.4539 79.9471 26.3774 79.9541 26.3022 79.9541H26.3029ZM18.2255 23.8112C16.9584 23.8112 15.8128 24.6199 15.4335 25.8545C12.4125 35.6992 7.51689 60.0797 25.9524 76.8254L47.4968 36.5255C44.3185 34.2889 32.4453 26.4504 18.7853 23.8637C18.597 23.828 18.4095 23.8112 18.2255 23.8112Z" fill="#000072"/>
<path d="M117.698 90.1727C117.698 90.1727 114.282 100.842 101.052 102.471C101.052 102.471 89.163 118.328 67.016 118.919C44.8691 119.513 39.2233 110.327 39.2233 110.327C39.2233 110.327 31.9058 110.499 27.1127 105.043L27.1092 105.04C27.1092 105.04 28.7809 102.581 30.1751 101.637C30.1751 101.637 26.2734 100.638 24.8792 99.082C24.8792 99.082 26.5508 93.7468 26.1624 86.6351C25.7951 79.9555 21.4459 58.9131 36.3449 44.8724C37.3093 43.9593 38.353 43.0812 39.4832 42.2381C39.4832 42.2381 32.5647 35.9625 36.3512 26.797C36.5872 26.2263 36.9862 25.7907 37.468 25.5071C38.4528 24.9231 39.774 24.975 40.7243 25.8146C44.3486 29.0301 51.2292 34.4101 57.281 34.9766C57.281 34.9766 55.2869 33.3618 54.6976 29.6316C54.3267 27.2634 56.9452 25.5723 58.9456 26.8999C61.8556 28.8361 65.9161 31.2429 69.6928 32.4564C69.6928 32.4564 82.3927 13.9965 93.98 3.65878C98.4401 -0.320713 105.449 0.671535 108.595 5.75042C114.573 15.4005 121.364 34.513 112.944 66.2425C112.944 66.2425 113.984 70.5364 113.912 76.1692C113.912 76.1692 115.285 77.4108 120.3 77.9121C120.3 77.9121 119.8 86.2444 114.393 87.9663C114.393 87.9663 114.764 88.7099 117.698 90.172V90.1727Z" fill="white"/>
<path d="M112.943 66.2432C121.363 34.5137 114.573 15.4012 108.594 5.75112C105.449 0.672235 98.4395 -0.320013 93.9793 3.65948C83.754 12.7823 72.6647 28.2276 70.1986 31.7323L113.069 66.8293C112.992 66.4491 112.942 66.2439 112.942 66.2439L112.943 66.2432Z" fill="#FFA300"/>
<path d="M112.222 62.9689C107.54 66.2432 101.835 68.1619 95.6826 68.1619C79.7433 68.1619 66.8215 55.2795 66.8215 39.3888C66.8215 36.7545 67.1755 34.2028 67.8449 31.7786L69.6936 32.4564C101.125 34.1783 109.954 54.8229 112.222 62.9689H112.222Z" fill="#FFA300"/>
<g opacity="0.3">
<path opacity="0.3" d="M48.0481 97.6318C48.2588 98.2326 48.8656 99.5567 50.2894 100.245C50.4411 100.319 50.6125 100.186 50.5788 100.022L50.3716 99.0231C50.3463 98.9013 50.4369 98.7858 50.5619 98.7809L51.9983 98.7276C52.1107 98.7234 52.2048 98.8096 52.2076 98.9216C52.2252 99.6009 52.3305 101.827 52.9704 103.026C53.4452 103.794 54.6091 103.63 54.8528 102.762L55.5938 100.113C55.6093 100.058 55.6479 100.013 55.6985 99.9867C56.0174 99.8263 57.2016 99.1618 57.7832 97.8874C57.9215 97.5841 58.2727 97.4413 58.5902 97.5477C59.3354 97.797 60.7002 98.1597 62.2833 98.1394C62.7532 98.1338 63.2231 98.1997 63.6692 98.3467L68.3084 99.8809C68.4721 99.9349 68.6287 99.7717 68.5599 99.6142C68.3913 99.2304 67.8498 98.7662 67.3742 98.1955C67.0554 97.8131 67.2099 97.2291 67.6805 97.0646C68.7783 96.6801 70.6172 95.5303 71.7937 92.0879C71.8534 91.9142 71.6469 91.7637 71.4916 91.8617C70.3552 92.5781 67.1586 94.3721 64.2739 93.9317C61.1005 93.4471 58.7054 91.1258 58.1983 90.6006C58.1372 90.5376 58.0437 90.5222 57.9644 90.5607L54.6287 92.2013C54.5725 92.2287 54.5332 92.2798 54.5206 92.3407C54.3913 92.9688 53.6039 96.5002 52.1072 97.1073C50.8134 97.6318 48.9851 97.463 48.2644 97.3671C48.1162 97.3475 47.9996 97.4896 48.0488 97.6304L48.0481 97.6318Z" fill="#000072"/>
</g>
<g opacity="0.3">
<path opacity="0.3" d="M117.698 90.1727C117.698 90.1727 114.283 100.842 101.052 102.471C101.052 102.471 89.1631 118.328 67.0161 118.919C44.8691 119.513 39.2233 110.327 39.2233 110.327C39.2233 110.327 31.9059 110.499 27.1128 105.043C27.1795 105.069 29.0092 105.844 32.8401 106.287C34.0791 106.43 35.1867 105.511 35.2689 104.27C35.2879 103.977 35.316 103.655 35.3553 103.302C35.3996 102.901 35.9046 102.744 36.1652 103.052C37.9731 105.185 43.4033 110.85 51.7701 113.157C52.2625 113.293 52.7878 113.212 53.2198 112.941C54.3331 112.24 56.8547 110.973 60.0351 111.383C60.5289 111.447 61.029 111.322 61.4167 111.011C62.7976 109.902 66.4732 107.436 70.9452 108.319C71.4896 108.426 72.0543 108.302 72.4814 107.948C74.8189 106.014 83.1562 99.6674 96.4911 95.5037C100.703 94.1886 102.962 89.5845 101.269 85.521C100.721 84.2066 99.9503 82.7914 98.8757 81.3146C98.469 80.7558 98.8651 79.9653 99.5577 79.9737C100.532 79.9856 101.878 80.1354 103.408 80.6732C104.255 80.9708 105.097 80.197 104.849 79.3357C104.391 77.7364 103.464 75.4312 101.607 73.044C99.4327 70.25 98.4044 66.7187 98.7563 63.2C99.5415 55.3439 98.2512 41.6205 81.9517 34.2329C81.9517 34.2329 108.631 38.1606 112.942 66.2425C112.942 66.2425 113.983 70.5364 113.91 76.1692C113.91 76.1692 115.283 77.4108 120.298 77.9121C120.298 77.9121 119.799 86.2444 114.392 87.9663C114.392 87.9663 114.763 88.7099 117.697 90.172L117.698 90.1727Z" fill="#000072"/>
</g>
<g opacity="0.3">
<path opacity="0.3" d="M55.511 44.9698C47.2966 51.5248 39.1686 46.8962 36.3443 44.8724C37.3087 43.9593 38.3524 43.0812 39.4826 42.2381C39.4826 42.2381 32.564 35.9625 36.3506 26.797C36.5866 26.2263 36.9856 25.7908 37.4674 25.5072C38.9677 40.1976 49.3244 42.4944 54.7693 42.6702C55.969 42.7087 56.448 44.2219 55.5103 44.9698H55.511Z" fill="#000072"/>
</g>
<path d="M64.9812 120.157C46.8807 120.157 40.2108 113.542 38.5968 111.523C36.5957 111.431 30.5024 110.74 26.1954 105.837C25.8316 105.422 25.7943 104.816 26.1041 104.36C26.2214 104.188 26.9329 103.156 27.8313 102.158C26.5066 101.662 24.8756 100.894 23.9738 99.8873C23.6893 99.57 23.5938 99.1268 23.7209 98.7199C23.7364 98.6695 25.3216 93.4877 24.9494 86.7002C24.9065 85.9237 24.8054 84.9188 24.6888 83.755C23.7378 74.2996 21.7802 54.839 37.7033 42.0806C35.8174 39.7915 32.0849 33.9444 35.2295 26.3362C35.7212 25.1458 36.7277 24.2971 37.9913 24.0072C39.2486 23.7187 40.5712 24.0569 41.532 24.9098C44.4308 27.4832 49.5687 31.5706 54.5185 33.1559C54.0949 32.2722 53.7128 31.1651 53.5 29.8186C53.2507 28.236 53.9355 26.7172 55.2876 25.8538C56.6319 24.9953 58.2917 25.0114 59.6185 25.8937C62.138 27.5687 65.7672 29.7541 69.2201 31.0139C71.7571 27.4174 82.9448 11.8811 93.1694 2.75617C95.5688 0.614815 98.7787 -0.348723 101.968 0.111339C105.15 0.5707 107.942 2.39414 109.627 5.11389C113.573 11.4826 116.178 19.0306 117.37 27.5477C118.985 39.0877 117.916 52.1116 114.193 66.2629C114.42 67.3104 115.117 70.895 115.127 75.4907C115.81 75.8219 117.383 76.4024 120.421 76.7049C121.07 76.7693 121.551 77.333 121.512 77.9815C121.492 78.3134 121.018 85.2794 116.638 88.2142C117.039 88.4578 117.563 88.7491 118.243 89.0881C118.778 89.3549 119.038 89.9704 118.856 90.539C118.709 90.999 115.13 101.699 101.703 103.604C99.6068 106.194 87.7863 119.572 67.049 120.127C66.3446 120.146 65.6541 120.155 64.9819 120.155L64.9812 120.157ZM39.2198 109.114C39.6419 109.114 40.0359 109.333 40.2572 109.692C40.3071 109.77 45.9592 118.279 66.9837 117.709C88.2955 117.139 99.9657 101.9 100.081 101.746C100.279 101.482 100.576 101.309 100.904 101.27C111.045 100.02 115.022 93.2615 116.167 90.7385C114.211 89.6679 113.525 88.9452 113.307 88.509C113.148 88.1931 113.136 87.8234 113.274 87.4978C113.411 87.1722 113.685 86.9229 114.023 86.8151C117.481 85.7136 118.607 81.1284 118.95 78.9695C114.757 78.3918 113.35 77.2973 113.095 77.0663C112.836 76.8331 112.692 76.5005 112.696 76.1531C112.767 70.7563 111.774 66.5661 111.763 66.5247C111.716 66.3301 111.719 66.1256 111.77 65.9323C119.871 35.4058 113.953 16.7023 107.562 6.38694C106.256 4.2778 104.089 2.864 101.621 2.50758C99.1432 2.15045 96.6518 2.89832 94.7891 4.5607C83.4484 14.6814 70.8188 32.9578 70.6923 33.1412C70.3882 33.5824 69.8312 33.7736 69.3185 33.6083C65.3577 32.3345 61.1251 29.8053 58.2713 27.9083C57.7501 27.5617 57.1243 27.5561 56.5961 27.8929C56.0595 28.2353 55.7982 28.8151 55.8972 29.4432C56.3974 32.6139 57.9876 33.9871 58.0543 34.0438C58.4596 34.3856 58.5993 34.9535 58.3942 35.4408C58.1891 35.9282 57.6918 36.23 57.1665 36.181C50.7551 35.5802 43.6062 29.9943 39.9158 26.7186C39.5358 26.3811 39.0322 26.2529 38.5342 26.3671C38.0482 26.4784 37.6605 26.804 37.4722 27.2599C34.0685 35.4969 40.0444 41.11 40.3 41.3453C40.5655 41.589 40.7102 41.9391 40.692 42.2983C40.6737 42.6576 40.4974 42.9916 40.2087 43.2073C24.2463 55.1184 26.1757 74.2982 27.1029 83.5155C27.223 84.708 27.3263 85.7381 27.3719 86.57C27.688 92.3344 26.7011 96.9301 26.2488 98.6835C27.3227 99.4615 29.3056 100.166 30.4758 100.467C30.9372 100.586 31.287 100.964 31.3685 101.431C31.45 101.9 31.2498 102.372 30.8557 102.639C30.1576 103.113 29.2824 104.151 28.6805 104.939C33.0156 109.182 39.1228 109.115 39.1952 109.116C39.2029 109.116 39.2106 109.116 39.2191 109.116L39.2198 109.114Z" fill="#000072"/>
<path d="M38.2878 111.097C38.0237 110.677 37.8495 110.309 37.6767 109.9C37.5053 109.502 37.355 109.098 37.2307 108.685C37.1078 108.272 36.9947 107.86 36.9216 107.437C36.8451 107.015 36.8184 106.579 36.8444 106.138C37.485 106.754 37.9766 107.375 38.528 107.952C38.7991 108.241 39.0731 108.522 39.3477 108.794L39.7628 109.193C39.8948 109.317 40.048 109.46 40.1561 109.552L38.2878 111.097Z" fill="#000072"/>
<path d="M113.972 89.1035C113.451 88.878 112.988 88.6301 112.522 88.3458C112.059 88.0671 111.612 87.7583 111.175 87.4362C110.311 86.7801 109.481 86.0504 108.819 85.1716C109.876 85.4685 110.874 85.7472 111.88 86.0105L113.369 86.411C113.859 86.5413 114.359 86.6911 114.813 86.834L113.972 89.1042V89.1035Z" fill="#000072"/>
<path d="M113.466 77.2966C112.748 76.9682 112.093 76.6104 111.431 76.2218C110.772 75.8394 110.128 75.4298 109.504 74.9858C108.88 74.5433 108.269 74.0818 107.702 73.5594C107.141 73.0321 106.599 72.4768 106.18 71.8361C106.853 72.2002 107.52 72.5104 108.2 72.7954C108.873 73.0874 109.559 73.35 110.24 73.6112C110.924 73.8682 111.616 74.1084 112.302 74.3507L114.351 75.0439L113.466 77.2973V77.2966Z" fill="#000072"/>
<path d="M111.749 66.4568C110.355 58.7639 107.254 53.5828 107.223 53.5317L109.3 52.2803C109.437 52.5058 112.666 57.8991 114.138 66.0269L111.75 66.4568H111.749Z" fill="#000072"/>
<path d="M82.9666 34.9023C82.7341 35.2189 82.4651 35.5123 82.1869 35.7994C81.906 36.0837 81.6145 36.3624 81.3082 36.6306C80.6979 37.1683 80.0643 37.6914 79.3528 38.1627C79.5087 37.3252 79.7419 36.5388 79.9983 35.7679C80.1254 35.3813 80.2673 35.0053 80.4197 34.6356C80.5749 34.2679 80.74 33.9066 80.9409 33.5691L82.9666 34.903V34.9023Z" fill="#000072"/>
<path d="M80.2552 76.0092C81.5184 75.5652 82.0619 73.846 81.469 72.1694C80.876 70.4927 79.3713 69.4934 78.108 69.9374C76.8448 70.3814 76.3013 72.1006 76.8942 73.7773C77.4872 75.4539 78.9919 76.4532 80.2552 76.0092Z" fill="white"/>
<path d="M45.9227 76.4535C45.1079 75.8002 44.3135 75.2099 43.5001 74.6714C42.6861 74.1364 41.8551 73.6644 40.9961 73.2709C40.5733 73.0559 40.1245 72.9159 39.6904 72.7254C39.238 72.6001 38.7991 72.4047 38.332 72.3046C37.4097 72.0119 36.451 71.8893 35.4072 71.6379C36.3751 71.2276 37.4568 71.0196 38.5286 71.112C39.0709 71.1198 39.5949 71.2549 40.1238 71.369C40.6351 71.5371 41.1527 71.7045 41.6276 71.9593C42.5919 72.4362 43.472 73.0692 44.2074 73.8311C44.572 74.2155 44.9105 74.6203 45.2006 75.0593C45.4914 75.4949 45.7513 75.9564 45.9234 76.4528L45.9227 76.4535Z" fill="#000072"/>
<path d="M65.0255 64.6859C65.0395 63.1278 65.508 61.623 66.1879 60.2267C66.8833 58.8353 67.8343 57.5392 69.0382 56.4839C70.2302 55.4216 71.6785 54.6087 73.2223 54.1878C74.7627 53.7614 76.3929 53.739 77.882 54.1654C76.4175 54.685 75.0865 55.1787 73.8756 55.8474C72.6618 56.5007 71.5647 57.2822 70.5483 58.1827C69.5271 59.0762 68.5943 60.0937 67.6939 61.1847C66.792 62.2799 65.9323 63.4388 65.0248 64.6859H65.0255Z" fill="#000072"/>
<path d="M57.7158 93.3477C56.3813 93.9149 54.895 94.0717 53.6343 93.3561C53.616 93.3456 53.5977 93.3351 53.5795 93.3245C51.7392 92.2581 49.0421 88.6308 55.5054 86.7527C61.5944 84.9839 63.3103 90.9682 57.7158 93.3477Z" fill="#000072"/>
<path d="M57.8577 92.3603C57.8345 92.7076 57.8015 92.987 57.7523 93.293C57.7039 93.592 57.6512 93.8903 57.581 94.1852C57.4433 94.7762 57.2698 95.3637 57.038 95.9414C56.8132 96.5219 56.5288 97.0933 56.167 97.643C55.8095 98.1934 55.3572 98.7227 54.7763 99.1555C54.2032 99.5889 53.4825 99.9146 52.7429 99.9881C52.004 100.072 51.3009 99.9426 50.6807 99.7318C50.0493 99.5266 49.5281 99.1653 49.0624 98.7704C48.8369 98.5645 48.6361 98.3313 48.4401 98.1044C48.2645 97.8509 48.0903 97.6045 47.9554 97.3209C48.275 97.3671 48.5553 97.4511 48.8341 97.5274C49.113 97.6002 49.3855 97.6703 49.6426 97.7508C50.1687 97.8775 50.6575 98.0337 51.1225 98.096C51.5847 98.1723 52.0244 98.1675 52.3973 98.0561C52.7696 97.9413 53.0906 97.7515 53.3814 97.4686C53.6694 97.1857 53.9229 96.8223 54.1484 96.4154C54.3696 96.0065 54.5537 95.552 54.7208 95.0829C54.8803 94.6102 55.0208 94.1186 55.1402 93.6186C55.1942 93.3673 55.2582 93.1166 55.3052 92.8631C55.3537 92.6173 55.4057 92.3421 55.4415 92.132L57.8584 92.3589L57.8577 92.3603Z" fill="#000072"/>
<path d="M57.548 91.6622C57.6273 91.749 57.7643 91.887 57.8802 91.9983L58.2532 92.3491C58.5081 92.5802 58.7736 92.8008 59.0405 93.0185C59.5821 93.4429 60.1468 93.835 60.7382 94.1634C61.9154 94.8266 63.193 95.2544 64.4988 95.2817C65.1513 95.3027 65.8094 95.2096 66.4535 95.0212C66.7815 94.9442 67.0892 94.7944 67.4144 94.6809C67.7241 94.5297 68.0465 94.3952 68.3465 94.2083C69.5834 93.5206 70.7458 92.5865 71.9209 91.5802C71.3119 93.0017 70.3862 94.3035 69.1479 95.3504C68.8473 95.6228 68.4968 95.8377 68.1596 96.0744C67.8021 96.281 67.4411 96.4925 67.0484 96.6451C66.2772 96.9735 65.4393 97.2109 64.5789 97.2746C63.7205 97.3426 62.8524 97.2774 62.0187 97.0968C61.1863 96.9084 60.387 96.6199 59.6397 96.2509C58.893 95.8784 58.1892 95.4414 57.5381 94.9414C57.2122 94.6921 56.8968 94.4302 56.5948 94.1515C56.4438 94.0122 56.2942 93.8707 56.1495 93.7209C55.9992 93.5654 55.8721 93.4331 55.7035 93.2356L57.5487 91.6629L57.548 91.6622Z" fill="#000072"/>
<path d="M53.0822 103.913C52.9558 103.913 52.8307 103.879 52.7198 103.811C49.8814 102.076 49.3989 98.8551 49.3799 98.7185C49.3476 98.4868 49.4347 98.255 49.6117 98.1009C49.7887 97.9476 50.0324 97.8944 50.2565 97.9574C53.1012 98.7641 53.9131 97.5638 53.9461 97.512C54.133 97.1857 54.5432 97.0751 54.874 97.2536C55.2055 97.4322 55.3291 97.8495 55.1578 98.1836C54.6303 99.2136 53.9728 102.262 53.7642 103.351C53.7214 103.573 53.5718 103.762 53.3632 103.853C53.274 103.893 53.1784 103.912 53.0829 103.912L53.0822 103.913ZM51.0333 99.5406C51.2932 100.254 51.7722 101.218 52.6242 102.01C52.7774 101.302 52.9965 100.351 53.2438 99.4713C52.6685 99.6184 51.9408 99.6751 51.0333 99.5413V99.5406Z" fill="#000072"/>
<path d="M68.9111 100.718C68.8311 100.718 68.7503 100.704 68.6723 100.675C64.7895 99.2528 63.6776 96.6584 63.6327 96.5492C63.5414 96.3286 63.5702 96.0772 63.7093 95.8833C63.8483 95.6893 64.0759 95.5801 64.3161 95.5955C66.9711 95.76 68.6295 94.0367 68.6463 94.0192C68.8142 93.8406 69.0643 93.7636 69.3031 93.8175C69.5419 93.8707 69.7357 94.0458 69.8116 94.2783C71.0759 98.1457 69.5405 100.339 69.4744 100.431C69.3417 100.615 69.1296 100.718 68.9111 100.718V100.718ZM65.5158 96.9399C66.0531 97.5933 67.0049 98.47 68.5852 99.152C68.8254 98.554 69.1141 97.393 68.7608 95.704C68.0514 96.1914 66.9437 96.7684 65.5158 96.9392V96.9399Z" fill="#000072"/>
<path d="M70.7338 33.0775C70.4121 33.5313 70.0637 33.9689 69.7111 34.4038C69.362 34.8407 68.9933 35.2665 68.6245 35.6915C68.2502 36.1138 67.8751 36.5353 67.4818 36.9464C67.0905 37.3581 66.6951 37.7685 66.2729 38.162C66.4205 37.6046 66.5953 37.064 66.7738 36.5248C66.9501 35.9849 67.1446 35.4555 67.3399 34.9269C67.5408 34.4017 67.7423 33.8765 67.9622 33.3625C68.1799 32.8471 68.4012 32.3338 68.6491 31.8367L70.7331 33.0775H70.7338Z" fill="#000072"/>
<path d="M40.3689 41.4104C40.4314 41.4791 40.5529 41.6002 40.6555 41.6954L40.9863 41.9986C41.2111 42.201 41.4471 42.395 41.6894 42.5812C42.1768 42.9503 42.6854 43.2962 43.2136 43.6078C44.2735 44.2282 45.4275 44.6708 46.6293 44.9306C47.2319 45.0496 47.8472 45.1161 48.4695 45.1336C49.0932 45.1546 49.7163 45.079 50.3463 44.9971C51.6015 44.794 52.8496 44.4124 54.1413 43.9593C53.1741 44.925 51.9611 45.6532 50.6301 46.1203C49.2927 46.5635 47.8402 46.7512 46.3961 46.6399C44.952 46.5292 43.5353 46.1231 42.2239 45.5209C41.5651 45.2226 40.9343 44.8675 40.3359 44.4628C40.0353 44.2611 39.7417 44.0497 39.4551 43.8235C39.3104 43.7121 39.1699 43.5952 39.0308 43.4712C38.8862 43.3431 38.7653 43.2353 38.5961 43.0637L40.3689 41.4104Z" fill="#000072"/>
<path d="M80.1788 83.7913C83.6156 82.9497 85.4645 78.4636 84.3084 73.7712C83.1523 69.0788 79.429 65.9571 75.9922 66.7987C72.5554 67.6403 70.7065 72.1264 71.8626 76.8188C73.0187 81.5112 76.7419 84.6329 80.1788 83.7913Z" fill="#000072"/>
<path d="M78.0478 74.3388C79.3644 74.0164 80.1361 72.5548 79.7713 71.0743C79.4066 69.5938 78.0435 68.655 76.7269 68.9774C75.4102 69.2998 74.6386 70.7614 75.0033 72.2419C75.3681 73.7224 76.7312 74.6612 78.0478 74.3388Z" fill="white"/>
<g opacity="0.3">
<path opacity="0.3" d="M80.5476 77.1566C81.5049 76.922 82.4721 77.506 82.7074 78.4604C82.9427 79.4149 82.3569 80.3791 81.3996 80.6137C80.4422 80.8483 79.475 80.2643 79.2397 79.3098C79.0044 78.3554 79.5902 77.3912 80.5476 77.1566Z" fill="white"/>
</g>
<path d="M43.6426 92.8944C46.8206 92.1162 48.5302 87.9676 47.4611 83.6283C46.392 79.2889 42.949 76.402 39.771 77.1802C36.593 77.9584 34.8834 82.1071 35.9525 86.4464C37.0216 90.7858 40.4646 93.6726 43.6426 92.8944Z" fill="#000072"/>
<path d="M41.6713 84.1535C42.8889 83.8554 43.6025 82.5039 43.2652 81.135C42.928 79.766 41.6675 78.8979 40.4499 79.1961C39.2324 79.4942 38.5188 80.8457 38.8561 82.2147C39.1933 83.5836 40.4538 84.4517 41.6713 84.1535Z" fill="white"/>
<g opacity="0.3">
<path opacity="0.3" d="M43.9835 86.7597C44.8692 86.5427 45.7633 87.0826 45.9811 87.9656C46.1988 88.8486 45.6573 89.74 44.7716 89.9571C43.8858 90.1741 42.9917 89.6343 42.774 88.7513C42.5562 87.8682 43.0978 86.9768 43.9835 86.7597Z" fill="white"/>
</g>
<path d="M81.9537 34.235C81.9537 34.235 91.3137 19.8057 98.0819 11.8089C99.6223 9.989 102.519 10.3013 103.643 12.4021C106.857 18.406 113.338 35.0004 109.978 56.3845C109.978 56.3845 103.728 39.0506 81.9537 34.235Z" fill="#FFC2DE"/>
<path d="M108.835 56.7941C108.727 56.5084 108.572 56.1485 108.422 55.8236C108.269 55.491 108.106 55.1591 107.938 54.8292C107.599 54.1703 107.232 53.5226 106.848 52.8833C106.073 51.6095 105.215 50.3813 104.286 49.2084C102.425 46.8674 100.294 44.7324 97.9218 42.902C97.3388 42.4314 96.72 42.0084 96.1124 41.5701C95.4852 41.1604 94.8685 40.7333 94.2195 40.3587C92.9426 39.573 91.6045 38.8895 90.2426 38.2586C87.5068 37.0199 84.6354 36.0739 81.6917 35.4163H81.691C81.0385 35.2756 80.6241 34.6349 80.7653 33.9843C80.7934 33.8541 80.8418 33.7343 80.9057 33.6258L80.9345 33.5782C83.0916 29.9761 85.3736 26.4749 87.7575 23.0262C88.9396 21.2966 90.166 19.5943 91.4113 17.9039C92.6623 16.2149 93.9301 14.5385 95.2773 12.9083C95.6053 12.4959 95.9502 12.0918 96.2915 11.6864L96.8036 11.0786C96.9405 10.9091 97.2292 10.5891 97.501 10.3545C98.0644 9.86716 98.752 9.50864 99.4776 9.33848C100.204 9.16762 100.96 9.16972 101.677 9.33568C102.393 9.50093 103.073 9.83425 103.639 10.3055C103.92 10.5422 104.179 10.8069 104.395 11.101C104.513 11.2417 104.601 11.3993 104.696 11.5541L104.83 11.7844L104.92 11.9658C105.406 12.9328 105.847 13.909 106.258 14.8942C107.082 16.8633 107.737 18.8912 108.203 20.9612C108.666 23.0311 108.969 25.1367 108.975 27.2746C108.037 25.3524 107.231 23.4365 106.412 21.5396C105.585 19.6468 104.783 17.7624 103.924 15.9159C103.495 14.993 103.041 14.084 102.556 13.2059L102.466 13.0407L102.395 12.9384C102.35 12.8726 102.313 12.8005 102.255 12.7466C102.159 12.6233 102.043 12.5204 101.922 12.4252C101.677 12.2396 101.387 12.1128 101.083 12.0575C100.467 11.9434 99.8351 12.1248 99.401 12.526C99.2401 12.6611 98.8545 13.1597 98.5448 13.5393C98.2224 13.9384 97.8972 14.334 97.5839 14.7444L96.6357 15.9649L95.7043 17.2036C95.075 18.0222 94.4618 18.8583 93.8423 19.6874L90.1927 24.7285L82.9715 34.8932L82.215 33.0544H82.2164C85.3139 33.7462 88.351 34.7448 91.2519 36.0592C92.6967 36.7279 94.1176 37.4547 95.4761 38.2894C96.1658 38.6886 96.8225 39.1416 97.4891 39.5786C98.136 40.0443 98.7941 40.4952 99.4143 40.9952C101.939 42.944 104.207 45.2156 106.19 47.7098C107.179 48.9591 108.094 50.2678 108.925 51.6326C109.336 52.3175 109.73 53.0142 110.098 53.7278C110.28 54.0856 110.458 54.4469 110.627 54.8152C110.799 55.192 110.953 55.54 111.118 55.9755L108.833 56.7941H108.835Z" fill="#000072"/>
<g opacity="0.3">
<path opacity="0.3" d="M112.943 66.2418C112.943 66.2418 114.883 52.3469 103.152 41.388C102.799 41.0582 102.662 40.561 102.787 40.0961C103.252 38.3728 103.829 33.7834 99.2458 28.1527C99.0379 27.8971 98.9283 27.5778 98.9424 27.2494C98.9852 26.2774 98.8363 24.0758 96.8169 22.7979C96.2016 22.4086 96.0429 21.5795 96.4454 20.9738L99.88 15.8017C100.4 15.0189 101.55 15.0112 102.077 15.7905C103.544 17.9613 106.253 22.1474 108.975 27.2739C108.975 27.2739 105.474 10.2257 101.071 10.6178C96.6673 11.01 89.5212 23.1018 89.5212 23.1018C89.5212 23.1018 96.1103 23.2902 95.4417 30.1806C95.4417 30.1806 101.088 32.7834 98.7106 42.04C98.7106 42.04 110.49 51.4625 112.943 66.2432V66.2418Z" fill="#000072"/>
</g>
<path d="M98.7107 42.0372C98.7107 42.0372 98.5028 41.8299 98.0968 41.477C96.2966 39.9175 90.5988 35.5508 81.9531 34.2336L89.1252 23.6641C89.1252 23.6641 89.763 23.6193 90.6374 23.7264C92.7565 23.996 96.2727 25.1822 95.4439 30.1778C95.4439 30.1778 101.201 33.1167 98.7107 42.0372Z" fill="white"/>
<g opacity="0.3">
<path opacity="0.3" d="M98.0968 41.477C96.2966 39.9175 90.5988 35.5508 81.9531 34.2336L89.1252 23.6641C89.1252 23.6641 89.763 23.6193 90.6374 23.7264L88.0807 28.6968C87.6544 29.5252 87.9684 30.565 88.8098 30.9691C89.5902 31.3437 90.3972 32.004 90.6136 33.1601C90.7372 33.8191 91.2296 34.3443 91.8666 34.5578C93.7701 35.1958 97.3066 36.9695 98.0968 41.4777V41.477Z" fill="#000072"/>
</g>
<path d="M98.7113 43.2486C98.3917 43.2486 98.0812 43.1225 97.8502 42.8915C97.7919 42.8333 91.8054 36.959 81.7704 35.4317C81.3588 35.3694 81.0083 35.1005 80.8412 34.7203C80.6747 34.34 80.7147 33.901 80.9479 33.5572L88.1186 22.9863C88.3272 22.6789 88.6651 22.4842 89.0366 22.4569C89.1982 22.445 93.0788 22.1943 95.304 24.6262C96.4482 25.8769 96.93 27.5463 96.7404 29.598C98.3896 30.8577 102.034 34.6398 99.8801 42.3621C99.7642 42.7773 99.4354 43.1001 99.0168 43.2087C98.915 43.2353 98.8124 43.2479 98.7099 43.2479L98.7113 43.2486ZM84.0026 33.3758C90.8291 34.8001 95.6271 37.9561 97.9625 39.7929C98.9403 33.4942 95.0617 31.3486 94.8805 31.252C94.4211 31.0076 94.1598 30.4936 94.2441 29.9817C94.5166 28.3403 94.2701 27.0869 93.5108 26.2578C92.4762 25.1276 90.6781 24.9077 89.7699 24.872L84.0019 33.3758H84.0026Z" fill="#000072"/>
<path d="M140.216 210.272C131.522 215.828 124.388 210.863 113.761 208.049C103.131 205.234 105.365 196.535 105.365 196.535C105.365 196.535 111.753 188.711 131.219 190.443C131.799 190.495 132.36 190.557 132.905 190.626C140.347 191.588 144.314 194.267 145.782 197.452C147.8 201.826 145.098 207.15 140.215 210.272H140.216Z" fill="white"/>
<g opacity="0.3">
<path opacity="0.3" d="M140.216 210.272C131.522 215.828 124.388 210.863 113.761 208.049C103.131 205.234 105.365 196.535 105.365 196.535C105.365 196.535 111.753 188.711 131.219 190.443C131.799 190.495 132.36 190.557 132.905 190.626C131.239 195.009 126.616 201.414 113.91 199.463C113.081 199.335 112.33 199.977 112.354 200.813C112.382 201.744 112.717 202.86 113.983 203.491C116.435 204.715 127.36 207.678 129.142 209.234C130.928 210.79 134.445 208.276 129.718 203.491C129.718 203.491 133.427 203.787 135.54 206.062C136.587 207.189 138.207 207.622 139.618 207.008C141.31 206.271 142.852 204.726 141.648 201.489C141.648 201.489 145.494 200.988 145.782 197.451C147.801 201.825 145.099 207.149 140.216 210.271V210.272Z" fill="#000072"/>
</g>
<path d="M131.965 214C128.143 214 124.357 212.723 120.252 211.338C118.098 210.611 115.87 209.859 113.449 209.218C101.794 206.13 104.163 196.335 104.189 196.236C104.232 196.066 104.312 195.908 104.423 195.772C104.701 195.432 111.448 187.47 131.329 189.237C143.623 190.33 146.689 195.496 147.423 198.478C148.52 202.936 145.888 208.085 140.873 211.29C137.78 213.266 134.862 214 131.966 214H131.965ZM106.485 197.113C106.24 198.524 105.694 204.659 114.073 206.879C116.572 207.541 118.838 208.306 121.031 209.045C128.195 211.462 133.372 213.209 139.562 209.252C143.703 206.605 145.915 202.508 145.065 199.055C144.064 194.988 139.109 192.358 131.114 191.647C114.374 190.159 107.639 195.964 106.485 197.113Z" fill="#000072"/>
<path d="M133.45 212.116L133.479 212.025C133.493 211.987 133.505 211.945 133.517 211.898C133.539 211.807 133.57 211.719 133.588 211.623C133.636 211.435 133.667 211.241 133.703 211.047C133.725 210.852 133.752 210.655 133.766 210.458C133.765 210.262 133.795 210.061 133.774 209.865C133.754 209.074 133.584 208.285 133.251 207.527C133.057 207.164 132.88 206.778 132.613 206.439C132.387 206.068 132.08 205.753 131.79 205.407C131.494 205.065 131.138 204.777 130.812 204.431C130.453 204.134 130.085 203.831 129.72 203.492C130.194 203.594 130.673 203.722 131.146 203.876C131.374 203.971 131.601 204.072 131.828 204.178C132.054 204.287 132.294 204.377 132.499 204.527C132.711 204.666 132.928 204.802 133.14 204.948L133.299 205.058L133.444 205.186L133.736 205.446C134.143 205.778 134.458 206.21 134.796 206.628C135.415 207.511 135.834 208.561 136 209.652C136.081 210.198 136.101 210.752 136.061 211.303C136.035 211.578 136.008 211.853 135.95 212.128C135.927 212.264 135.893 212.404 135.856 212.542C135.839 212.61 135.818 212.681 135.794 212.755C135.771 212.826 135.75 212.895 135.711 213L133.451 212.118L133.45 212.116Z" fill="#000072"/>
<path d="M142.888 206.863L142.78 206.245L142.655 205.594C142.565 205.162 142.476 204.727 142.364 204.3C142.257 203.872 142.141 203.448 142.001 203.034C141.873 202.615 141.722 202.208 141.546 201.815C141.211 201.015 140.77 200.292 140.247 199.614C139.981 199.279 139.69 198.957 139.364 198.635C139.033 198.321 138.662 198.029 138.247 197.712C138.759 197.639 139.29 197.679 139.806 197.812C140.319 197.95 140.814 198.181 141.266 198.476C142.164 199.079 142.871 199.917 143.437 200.8C143.716 201.246 143.964 201.708 144.183 202.178C144.392 202.653 144.581 203.134 144.737 203.624C144.888 204.115 145.022 204.609 145.115 205.112C145.167 205.363 145.206 205.617 145.239 205.872C145.273 206.134 145.296 206.369 145.308 206.673L142.887 206.862L142.888 206.863Z" fill="#000072"/>
<path d="M51.9295 147.453C51.475 148.252 50.9553 149.012 50.3758 149.724C45.8468 155.263 37.6338 153.925 31.5406 151.834C27.1359 150.319 23.8382 148.407 23.8382 148.407C23.3767 148.348 22.9328 148.241 22.503 148.086H22.4959C15.7228 145.666 12.9414 132.022 18.0428 127.172C23.6092 121.878 25.9187 127.366 25.9187 127.366C34.4639 125.737 33.7601 132.998 33.7601 132.998C34.7933 133.267 35.7093 133.551 36.4685 133.817C37.9393 134.318 38.837 134.733 38.9171 134.771C38.9206 134.771 38.9241 134.775 38.9241 134.775C38.9311 133.71 39.028 132.642 39.1804 131.604C39.7079 128.046 40.9076 124.869 41.4555 123.545C41.6325 123.124 41.7399 122.888 41.7399 122.888C53.6285 121.696 57.5858 137.524 51.9288 147.454L51.9295 147.453Z" fill="white"/>
<path d="M51.9295 147.453C51.4751 148.252 50.9553 149.012 50.3759 149.724C45.8469 155.263 37.6339 153.925 31.5406 151.834C33.7911 147.508 38.3243 144.555 43.5508 144.555C46.7136 144.555 49.6271 145.641 51.9295 147.453Z" fill="#FFA300"/>
<g opacity="0.3">
<path opacity="0.3" d="M51.9295 147.453C51.4751 148.252 50.9553 149.012 50.3758 149.724C45.8469 155.263 37.6338 153.925 31.5406 151.834C27.136 150.319 23.8383 148.407 23.8383 148.407C29.7517 150.081 35.0652 150.098 39.1124 149.613C43.3372 149.108 46.3645 145.281 45.9262 141.062C45.5062 137.025 45.6432 133.708 45.8244 131.673C45.9501 130.267 45.4992 128.87 44.5699 127.804C42.913 125.903 41.9788 124.504 41.4555 123.545C41.6325 123.124 41.74 122.888 41.74 122.888C53.6286 121.696 57.5858 137.524 51.9288 147.454L51.9295 147.453Z" fill="#000072"/>
</g>
<g opacity="0.3">
<path opacity="0.3" d="M43.5507 138.647C41.8235 135.663 38.9241 134.774 38.9241 134.774C38.9311 133.709 39.028 132.641 39.1804 131.603C42.7106 134.062 43.55 138.647 43.55 138.647H43.5507Z" fill="#000072"/>
</g>
<g opacity="0.3">
<path opacity="0.3" d="M36.4692 133.816C36.5662 138.018 34.2413 139.659 32.9257 140.25C32.3996 140.486 32.0168 140.945 31.8756 141.504C30.4997 146.956 23.8832 144.555 23.8832 144.555C32.4699 144.351 28.5583 138.647 28.5583 138.647C33.9688 138.871 33.7601 132.997 33.7601 132.997C34.7934 133.267 35.7093 133.55 36.4685 133.816H36.4692Z" fill="#000072"/>
</g>
<path d="M41.0158 154.873C33.2587 154.873 24.9305 150.409 23.4386 149.572C19.8775 149.002 16.8186 145.818 15.2228 140.996C13.6691 136.301 13.6263 129.698 17.2049 126.295C19.3999 124.208 21.4824 123.353 23.3929 123.75C24.9937 124.084 26.015 125.223 26.5579 126.035C29.3141 125.664 31.462 126.162 32.9545 127.518C34.5047 128.927 34.8889 130.884 34.9683 132.072C36.0991 132.396 37.0579 132.726 37.794 133.003C38.2618 127.565 40.5312 122.612 40.6379 122.382C40.8178 121.993 41.1907 121.728 41.6178 121.685C46.7396 121.168 50.956 123.47 53.4888 128.161C57.1335 134.913 56.1993 144.511 51.3156 150.488C48.6487 153.751 44.9028 154.873 41.0151 154.873H41.0158ZM22.4777 126.078C21.4761 126.078 20.2427 126.75 18.8794 128.047C16.5053 130.305 15.9364 135.432 17.5273 140.238C18.859 144.263 21.2745 146.868 23.9893 147.206C24.1508 147.227 24.3075 147.279 24.4479 147.36C24.6263 147.463 42.3827 157.586 49.4339 148.959C53.6637 143.784 54.5066 135.152 51.3515 129.309C49.4325 125.754 46.3364 123.911 42.5639 124.045C41.8791 125.711 40.1659 130.322 40.1378 134.782C40.1357 135.195 39.9215 135.579 39.5703 135.799C39.2198 136.019 38.7808 136.045 38.4051 135.869C38.3868 135.86 36.4117 134.94 33.4518 134.167C32.8752 134.017 32.4938 133.471 32.5507 132.879C32.5521 132.863 32.734 130.581 31.3074 129.298C30.256 128.352 28.5211 128.102 26.147 128.554C25.5837 128.662 25.0211 128.361 24.7998 127.833C24.797 127.826 24.148 126.371 22.8823 126.117C22.7517 126.09 22.6175 126.078 22.4777 126.078Z" fill="#000072"/>
<path d="M39.4776 133.697C39.9531 134.061 40.3345 134.413 40.7342 134.792C41.1247 135.169 41.4977 135.561 41.8496 135.967C42.1987 136.378 42.526 136.805 42.8203 137.248C43.1083 137.698 43.3604 138.165 43.5508 138.645C42.8294 137.9 41.976 137.365 41.0917 136.913C40.6464 136.691 40.1934 136.49 39.7347 136.311C39.2838 136.135 38.7949 135.96 38.3721 135.851L39.4776 133.697Z" fill="#000072"/>
<path d="M26.9371 127.149C26.9856 127.352 27.0116 127.483 27.0355 127.648C27.0586 127.806 27.072 127.966 27.0825 128.13C27.098 128.457 27.0853 128.802 27.001 129.177C26.9589 129.364 26.9027 129.558 26.8093 129.758C26.7686 129.857 26.7131 129.957 26.6513 130.057L26.6056 130.132L26.5845 130.165C26.5979 130.148 26.6098 130.13 26.6218 130.112C26.6674 130.039 26.706 129.952 26.7285 129.86C26.7742 129.674 26.758 129.469 26.6702 129.281C26.5859 129.093 26.4103 128.92 26.2144 128.838C25.9046 128.737 26.1245 128.805 26.1722 128.803L26.3984 128.846C26.9989 128.97 27.5981 129.165 28.1797 129.472C28.7563 129.781 29.3126 130.221 29.7495 130.785C30.1864 131.347 30.4898 132.024 30.6155 132.696C30.6802 133.031 30.7104 133.365 30.7181 133.687C30.7202 133.982 30.7139 134.278 30.6914 134.58C30.6429 135.18 30.5355 135.807 30.2959 136.423C30.0628 137.038 29.6982 137.652 29.177 138.161C29.0485 138.289 28.9066 138.406 28.7584 138.518L28.7331 138.537L28.7654 138.511C28.7865 138.494 28.8048 138.474 28.8251 138.454C28.8631 138.413 28.8996 138.366 28.9284 138.315C28.9881 138.214 29.0232 138.099 29.0331 137.982C29.0562 137.752 28.953 137.483 28.7612 137.322C28.7366 137.302 28.7149 137.284 28.691 137.268L28.6545 137.245C28.6453 137.24 28.6664 137.254 28.6713 137.257L28.7732 137.323C28.8413 137.366 28.9073 137.413 28.9734 137.462C29.5001 137.842 29.9904 138.347 30.3416 138.988C30.6893 139.628 30.8487 140.413 30.7644 141.112C30.6886 141.818 30.4575 142.427 30.1611 142.976C29.8591 143.534 29.4257 144.051 28.8954 144.43C28.3714 144.817 27.761 145.052 27.1675 145.16C25.9706 145.361 24.8173 145.118 23.8768 144.551C24.9522 144.409 25.9383 144.175 26.7187 143.758C27.5018 143.342 28.0076 142.777 28.318 142.048C28.4817 141.677 28.5807 141.289 28.5828 140.966C28.5898 140.636 28.4943 140.374 28.3412 140.116C28.1775 139.862 27.9198 139.62 27.5995 139.412C27.5601 139.385 27.5208 139.359 27.4787 139.335L27.4169 139.298L27.3164 139.233C27.2658 139.198 27.2174 139.162 27.1703 139.119C26.7819 138.789 26.5747 138.253 26.6232 137.767C26.6435 137.522 26.7208 137.281 26.8472 137.07C26.9104 136.965 26.9849 136.865 27.0685 136.778C27.1099 136.732 27.1535 136.693 27.1991 136.654L27.2813 136.587C27.3368 136.54 27.3923 136.491 27.4436 136.434C27.8664 135.989 28.1038 135.234 28.1684 134.386C28.1825 134.173 28.186 133.954 28.1839 133.733C28.1775 133.54 28.1593 133.36 28.1256 133.188C28.0518 132.849 27.9366 132.555 27.747 132.297C27.3789 131.785 26.6794 131.378 25.8618 131.158L25.7087 131.12L25.6314 131.102C25.6637 131.107 25.4305 131.068 25.2886 131C24.9726 130.869 24.6986 130.599 24.5588 130.295C24.4142 129.991 24.384 129.651 24.4591 129.34C24.4956 129.185 24.5588 129.037 24.6389 128.91L24.7063 128.809L24.7127 128.801C24.7218 128.793 24.7337 128.784 24.7429 128.763C24.7668 128.734 24.7899 128.681 24.8117 128.618C24.8546 128.494 24.8883 128.321 24.9037 128.134C24.9093 128.04 24.9143 127.943 24.9114 127.844L24.903 127.578L26.9385 127.146L26.9371 127.149Z" fill="#000072"/>
<path d="M28.8701 140.069L28.736 137.653C30.1239 137.577 31.1451 137.15 31.7724 136.387C32.8253 135.105 32.5626 133.194 32.5605 133.176L34.9605 132.811C34.9788 132.93 35.3967 135.772 33.6688 137.899C32.5928 139.223 30.978 139.954 28.8708 140.07L28.8701 140.069Z" fill="#000072"/>
<path d="M157.234 99.6422C157.126 101.433 156.738 102.965 156.193 103.971C153.408 109.14 149.358 104.694 149.358 104.694C148.14 107.055 145.269 106.398 145.269 106.398C145.387 107.249 145.352 107.937 145.21 108.493C144.745 110.319 143.126 110.74 141.961 110.799C141.857 110.803 141.753 110.813 141.649 110.824C140.838 110.904 140.05 111.135 139.318 111.498C139.163 111.571 139.01 111.653 138.86 111.74C138.091 112.193 137.352 112.667 136.637 113.158C123.275 122.365 119.186 138.183 119.186 138.183C119.494 140.153 119.977 141.979 120.584 143.722C123.736 152.85 130.176 159.765 132.264 174.19C132.719 177.316 133.059 179.957 133.312 182.177C133.981 187.975 130.392 193.379 124.912 195.039C124.482 195.174 124.038 195.281 123.584 195.364C96.9694 200.235 77.9404 189.676 77.9404 189.676C79.0572 196.861 72.5165 201.159 67.2381 202.417C61.9632 203.679 46.3568 212.347 42.2682 203.085C41.2968 200.882 41.2519 199.008 41.7513 197.435C42.4382 195.243 44.1717 193.625 45.9164 192.494C48.1985 191.021 50.4911 190.378 50.4911 190.378C41.0166 177.018 46.1841 166.075 49.7768 161.038C51.1534 159.105 52.3018 158.04 52.3018 158.04C52.3018 158.04 52.3018 158.036 52.2983 158.026C48.8166 144.922 48.4141 135.902 48.7955 130.338C49.1285 125.456 50.0683 123.229 50.0683 123.229L90.7624 108.473L117.626 92.8694C117.66 92.8484 117.695 92.8281 117.726 92.8106L131.203 84.9825C135.656 82.3965 140.983 81.615 145.939 83.0253C155.147 85.6464 157.588 93.9611 157.235 99.6422H157.234Z" fill="white"/>
<path d="M124.912 195.038C114.122 190.948 106.454 180.537 106.454 168.343C106.454 157.853 112.128 148.683 120.584 143.722C123.736 152.85 130.176 159.765 132.264 174.19C132.719 177.316 133.059 179.957 133.312 182.177C133.981 187.975 130.392 193.379 124.912 195.039V195.038Z" fill="#FFA300"/>
<g opacity="0.3">
<path opacity="0.3" d="M157.234 99.6422C157.126 101.433 156.738 102.965 156.193 103.971C153.408 109.14 149.358 104.694 149.358 104.694C148.14 107.055 145.269 106.398 145.269 106.398C145.387 107.249 145.352 107.937 145.21 108.493C142.203 108.745 140.438 107.944 139.441 107.13C138.625 106.463 137.531 106.202 136.507 106.457C133.815 107.127 130.78 105.972 130.78 105.972C131.726 110.668 139.446 111.366 139.446 111.366L139.318 111.498C139.162 111.571 139.009 111.653 138.86 111.74C138.09 112.193 137.351 112.667 136.637 113.158C123.905 110.838 128.355 101.831 128.355 101.831C129.274 98.2214 127.377 95.3308 127.377 95.3308C131.513 94.0486 133.366 96.5667 134.151 98.4497C134.928 100.312 137.155 101.124 138.891 100.088C139.642 99.6387 140.105 99.1373 140.105 99.1373C140.587 97.2116 139.845 95.8041 139.845 95.8041C143.878 97.0527 139.809 102.276 145.086 103.804C148.109 104.68 149.892 99.1366 149.892 99.1366C150.038 100.246 149.892 101.467 149.892 101.467C155.493 105.305 157.161 99.8936 157.234 99.6415L157.234 99.6422Z" fill="#000072"/>
</g>
<g opacity="0.3">
<path opacity="0.3" d="M141.648 110.824C140.837 110.904 140.05 111.135 139.318 111.498C139.162 111.571 139.009 111.653 138.86 111.74C138.09 112.193 137.351 112.667 136.637 113.158C123.274 122.365 119.185 138.183 119.185 138.183C119.494 140.153 119.976 141.979 120.583 143.722C123.735 152.85 130.175 159.765 132.264 174.19C132.718 177.316 133.058 179.957 133.311 182.177C133.98 187.975 130.391 193.379 124.911 195.039C124.481 195.174 124.037 195.281 123.583 195.364C96.9687 200.235 77.9396 189.676 77.9396 189.676C77.9396 189.676 71.8738 186.623 69.1478 184.667C69.1478 184.667 103.37 198.711 116.286 187.748C132.056 174.365 104.53 152.233 116.572 121.817C116.716 121.453 117.247 121.493 117.329 121.876C117.446 122.413 117.594 123.072 117.759 123.75C117.879 124.242 118.542 124.331 118.785 123.887C121.014 119.804 128.861 107.613 141.647 110.824L141.648 110.824Z" fill="#000072"/>
</g>
<g opacity="0.3">
<path opacity="0.3" d="M90.0923 124.81C92.9883 126.922 100.458 129.474 100.458 129.474C91.3152 152.974 78.5093 148 74.703 145.851C74.125 145.525 73.3931 145.79 73.1458 146.405C72.7813 147.311 72.1969 148.552 71.399 149.593C69.9528 151.481 70.0258 157.482 70.0258 157.482C51.5495 153.058 52.2519 139.317 53.165 134.319C53.3554 133.278 52.8054 132.249 51.8305 131.832C50.8514 131.414 49.8034 130.886 48.7941 130.338C49.127 125.456 50.0668 123.229 50.0668 123.229L90.761 108.473L117.624 92.8694C109.501 97.5883 95.7507 110.908 88.7206 117.962C86.8698 119.819 87.1718 122.933 89.3906 124.334C89.6231 124.481 89.8577 124.639 90.0916 124.81H90.0923Z" fill="#000072"/>
</g>
<g opacity="0.3">
<path opacity="0.3" d="M63.6657 192.269C63.6657 192.269 55.0579 196.891 45.9164 192.493C48.1984 191.021 50.491 190.377 50.491 190.377C50.491 190.377 54.3682 194.087 63.6664 192.269H63.6657Z" fill="#000072"/>
</g>
<g opacity="0.3">
<path opacity="0.3" d="M55.5398 167.925C55.3839 167.821 51.6071 165.248 49.776 161.037C51.1527 159.104 52.3011 158.039 52.3011 158.039C52.3011 158.039 54.0493 164.868 55.5405 167.924L55.5398 167.925Z" fill="#000072"/>
</g>
<g opacity="0.3">
<path opacity="0.3" d="M67.2374 202.417C61.9624 203.678 46.3561 212.347 42.2675 203.084C41.2961 200.882 41.2512 199.008 41.7506 197.434C42.5969 197.611 43.2108 198.268 43.2347 199.751C43.2698 202.11 44.8095 203.131 46.3856 203.557C48.0194 203.998 49.7058 203.24 50.5571 201.781C51.9717 199.356 54.364 198.88 54.364 198.88C54.364 198.88 52.5259 202.102 56.5941 201.379C60.6623 200.657 61.6091 199.934 67.9067 197.213C74.205 194.488 72.1063 190.378 72.1063 190.378C69.8383 187.449 69.1479 184.666 69.1479 184.666C72.0227 186.806 77.9396 189.676 77.9396 189.676C79.0564 196.86 72.5158 201.158 67.2374 202.417Z" fill="#000072"/>
</g>
<path d="M49.5295 208.5C45.9326 208.5 42.7894 207.268 41.1585 203.571C39.9644 200.865 39.911 198.326 41.0004 196.027C42.6349 192.578 46.4446 190.625 48.6045 189.759C42.507 180.337 43.4209 172.159 45.3384 166.865C47.0564 162.123 49.8063 158.889 50.9525 157.678C44.6353 133.447 48.7674 123.189 48.9479 122.76C49.0793 122.449 49.3343 122.207 49.6517 122.091L90.2434 107.371L130.593 83.9357C135.394 81.1473 141.108 80.3903 146.271 81.8608C152.646 83.6759 155.627 87.9341 157.005 91.186C159.138 96.2194 158.73 101.826 157.264 104.544C156.256 106.414 154.949 107.459 153.378 107.651C151.813 107.842 150.435 107.117 149.533 106.455C148.645 107.287 147.524 107.612 146.548 107.681C146.496 108.787 146.168 109.709 145.568 110.432C144.776 111.386 143.55 111.931 142.023 112.007C141.148 112.051 140.267 112.319 139.476 112.784C125.901 120.755 121.032 136.169 120.427 138.251C121.304 143.525 123.515 147.814 125.852 152.35C128.772 158.015 132.081 164.436 133.468 174.015C133.888 176.921 134.242 179.621 134.52 182.038C135.312 188.93 130.605 195.306 123.806 196.551C118.684 197.489 113.847 197.87 109.371 197.87C94.4465 197.87 83.5194 193.636 79.2714 191.683C79.0213 197.982 73.2885 202.218 67.5226 203.594C66.5111 203.836 65.0178 204.398 63.2886 205.048C59.429 206.5 54.1119 208.5 49.5302 208.5H49.5295ZM51.027 124.168C50.338 126.424 47.9119 136.806 53.4748 157.728C53.59 158.16 53.4566 158.619 53.1285 158.924C53.0941 158.956 49.54 162.318 47.5874 167.779C44.9991 175.019 46.3084 182.387 51.4793 189.679C51.7069 190 51.7638 190.412 51.6325 190.782C51.5004 191.152 51.1963 191.437 50.8163 191.542C50.7594 191.559 45.0061 193.223 43.1912 197.067C42.4073 198.726 42.4691 200.534 43.3794 202.596C45.9473 208.416 54.199 205.879 62.4303 202.783C64.2361 202.104 65.7954 201.517 66.9557 201.24C70.8076 200.321 77.8104 196.759 76.74 189.859C76.669 189.402 76.8657 188.945 77.2464 188.68C77.6271 188.417 78.1258 188.392 78.5304 188.617C78.7172 188.719 97.5243 198.902 123.365 194.171C128.914 193.155 132.753 187.947 132.106 182.314C131.832 179.92 131.481 177.245 131.063 174.363C129.734 165.183 126.663 159.222 123.692 153.457C121.224 148.669 118.894 144.147 117.986 138.37C117.96 138.207 117.968 138.04 118.009 137.88C118.2 137.144 122.852 119.736 138.243 110.7C139.371 110.038 140.635 109.655 141.9 109.591C142.478 109.563 143.259 109.418 143.696 108.891C144.091 108.415 144.216 107.633 144.067 106.565C144.013 106.171 144.155 105.776 144.45 105.507C144.744 105.238 145.152 105.131 145.542 105.22C145.735 105.262 147.528 105.598 148.277 104.142C148.459 103.789 148.803 103.547 149.198 103.496C149.594 103.444 149.988 103.588 150.256 103.881C150.651 104.309 151.939 105.396 153.089 105.25C153.828 105.157 154.514 104.534 155.126 103.4C156.123 101.55 156.7 96.6885 154.768 92.1299C153.597 89.3647 151.055 85.7423 145.604 84.1898C141.073 82.9 136.047 83.5701 131.814 86.0287L91.3707 109.519C91.3082 109.556 91.2422 109.586 91.1747 109.611L51.0263 124.17L51.027 124.168Z" fill="#000072"/>
<path d="M53.4902 157.791C53.6223 158.594 53.7775 159.453 53.9292 160.29C54.0894 161.131 54.2544 161.975 54.4314 162.819C54.6049 163.664 54.7988 164.506 54.9863 165.355C55.1711 166.206 55.3705 167.056 55.5447 167.929C54.5038 166.487 53.6736 164.913 52.9529 163.299C52.5884 162.491 52.2505 161.672 51.9457 160.839C51.6324 160.003 51.3529 159.178 51.1127 158.286L53.4895 157.791L53.4902 157.791Z" fill="#000072"/>
<path d="M77.4107 190.763C76.6515 190.343 75.9238 189.905 75.2003 189.442C74.4748 188.987 73.7611 188.511 73.0581 188.017C72.3571 187.522 71.6596 187.018 70.9951 186.466C70.3314 185.916 69.6845 185.328 69.1345 184.655C69.9226 185.016 70.7072 185.336 71.4833 185.67C72.2615 186 73.0335 186.336 73.8145 186.656L78.4706 188.585L77.4107 190.763Z" fill="#000072"/>
<path d="M51.3712 189.547C51.3712 189.552 51.4225 189.603 51.4555 189.638C51.4878 189.675 51.5383 189.717 51.5791 189.757C51.6606 189.839 51.7561 189.919 51.8509 190C52.0384 190.161 52.2442 190.314 52.4543 190.46C52.6657 190.607 52.8799 190.754 53.1096 190.881C53.3315 191.021 53.5675 191.138 53.8056 191.254C54.756 191.727 55.7962 192.061 56.8765 192.285L57.6969 192.426C57.9715 192.48 58.2511 192.482 58.5306 192.514C59.0904 192.583 59.6544 192.563 60.2262 192.577C60.7972 192.585 61.3654 192.514 61.9449 192.489C62.5174 192.425 63.0912 192.342 63.6728 192.267C63.1298 192.472 62.5841 192.688 62.0285 192.888L61.1779 193.127C60.892 193.203 60.6083 193.298 60.3147 193.344C59.7317 193.457 59.1438 193.584 58.5425 193.622C58.2426 193.645 57.942 193.696 57.6386 193.694L56.7248 193.708C55.5047 193.668 54.2664 193.488 53.0625 193.104C52.7626 193.006 52.4627 192.904 52.1712 192.774C51.8741 192.659 51.5861 192.517 51.2988 192.37C51.013 192.219 50.7327 192.055 50.4567 191.87C50.319 191.778 50.1806 191.687 50.0437 191.579C49.9748 191.525 49.9095 191.479 49.8379 191.416C49.7648 191.352 49.7072 191.308 49.6061 191.209L51.3705 189.547H51.3712Z" fill="#000072"/>
<path d="M50.9497 207.403C50.8809 207.162 50.8359 206.976 50.7952 206.764C50.7544 206.558 50.7179 206.354 50.6933 206.147C50.6357 205.734 50.6076 205.318 50.5964 204.9C50.5774 204.063 50.6554 203.211 50.857 202.365C50.9532 201.941 51.1084 201.524 51.2875 201.115C51.4673 200.708 51.6928 200.307 51.9984 199.961C52.2997 199.616 52.6642 199.318 53.0751 199.125C53.4909 198.939 53.9299 198.842 54.364 198.88C53.8049 199.55 53.4818 200.136 53.2725 200.753C53.1671 201.059 53.0723 201.364 53.0147 201.689C52.9529 202.012 52.9318 202.346 52.91 202.682C52.8848 203.359 52.9248 204.054 53.0042 204.753C53.0414 205.102 53.092 205.452 53.1425 205.802L53.3048 206.815L50.9504 207.404L50.9497 207.403Z" fill="#000072"/>
<path d="M41.1725 203.348C41.1746 202.95 41.202 202.63 41.2498 202.278C41.294 201.934 41.3607 201.593 41.4401 201.253C41.6002 200.576 41.832 199.905 42.1495 199.261C42.4768 198.623 42.8793 197.987 43.4609 197.497C44.0312 197.006 44.8375 196.728 45.5385 196.898C44.9907 197.367 44.6648 197.815 44.4224 198.312C44.3016 198.559 44.1871 198.805 44.0986 199.069C44.0087 199.333 43.9476 199.609 43.8837 199.885C43.7706 200.445 43.7032 201.022 43.6639 201.607C43.6428 201.899 43.6308 202.192 43.6196 202.485L43.6006 203.33L41.1732 203.348H41.1725Z" fill="#000072"/>
<path d="M148.192 104.358C148.258 104.199 148.35 103.976 148.423 103.776C148.503 103.571 148.587 103.363 148.662 103.151C148.814 102.728 148.981 102.3 149.115 101.862C149.259 101.424 149.398 100.98 149.532 100.527C149.672 100.074 149.785 99.6128 149.924 99.1373C150.102 99.596 150.241 100.069 150.348 100.55C150.46 101.031 150.533 101.52 150.583 102.012C150.624 102.503 150.661 103.001 150.651 103.499C150.646 103.748 150.639 103.998 150.622 104.25C150.595 104.506 150.581 104.739 150.523 105.031L148.191 104.358H148.192Z" fill="#000072"/>
<path d="M145.443 107.596C145.18 107.628 145.015 107.633 144.81 107.639C144.616 107.642 144.423 107.64 144.231 107.628C143.847 107.61 143.465 107.557 143.085 107.484C142.325 107.329 141.567 107.045 140.881 106.615C140.529 106.414 140.219 106.142 139.913 105.876C139.631 105.583 139.345 105.29 139.129 104.952C138.878 104.631 138.715 104.275 138.533 103.926C138.364 103.573 138.257 103.208 138.123 102.848C138.021 102.576 138.046 102.287 138.167 102.046L138.256 101.871C138.286 101.823 138.36 101.699 138.416 101.601C138.476 101.497 138.537 101.389 138.595 101.279C138.715 101.06 138.823 100.83 138.934 100.599C139.148 100.133 139.333 99.6464 139.475 99.138C139.623 98.6303 139.732 98.0995 139.786 97.547C139.856 96.991 139.854 96.4182 139.845 95.8034C140.213 96.2817 140.55 96.823 140.746 97.4196C140.867 97.7151 140.929 98.0232 141.008 98.3355C141.053 98.6478 141.12 98.9692 141.126 99.29C141.164 99.9335 141.129 100.589 140.999 101.228C140.936 101.549 140.852 101.865 140.747 102.18C140.691 102.335 140.638 102.494 140.567 102.648C140.498 102.811 140.436 102.943 140.319 103.145L140.452 102.169C140.552 102.412 140.621 102.677 140.735 102.907C140.858 103.13 140.957 103.372 141.115 103.561C141.388 103.977 141.75 104.304 142.165 104.562C142.579 104.822 143.057 105.008 143.571 105.112C143.829 105.161 144.093 105.2 144.359 105.212C144.493 105.221 144.625 105.222 144.756 105.22C144.877 105.218 145.037 105.206 145.096 105.2L145.443 107.596H145.443Z" fill="#000072"/>
<path d="M140.099 103.409L139.945 103.552C139.9 103.594 139.857 103.63 139.814 103.666C139.726 103.739 139.64 103.807 139.552 103.874C139.377 104.005 139.2 104.13 139.015 104.24C138.646 104.462 138.263 104.664 137.858 104.82C137.456 104.982 137.034 105.1 136.607 105.195C136.169 105.283 135.766 105.332 135.245 105.335C134.75 105.318 134.248 105.256 133.775 105.094C133.306 104.932 132.85 104.722 132.451 104.432C131.645 103.867 131.019 103.078 130.65 102.187C130.466 101.743 130.34 101.274 130.291 100.801C130.256 100.532 130.252 100.411 130.239 100.237C130.229 100.073 130.209 99.9118 130.195 99.7486C130.116 99.1051 129.996 98.4777 129.793 97.921C129.695 97.6374 129.573 97.3895 129.455 97.1367C129.322 96.9063 129.194 96.6633 129.018 96.4596C128.684 96.0317 128.153 95.6487 127.38 95.3315C128.046 94.8455 129.026 94.7439 129.9 95.1263C130.345 95.3013 130.714 95.6003 131.042 95.9232C131.346 96.2565 131.61 96.6248 131.799 97.0064C132.196 97.7669 132.45 98.5491 132.624 99.3271C132.663 99.521 132.707 99.7164 132.74 99.9104C132.773 100.095 132.805 100.333 132.831 100.422C132.875 100.665 132.969 100.894 133.076 101.11C133.293 101.542 133.626 101.908 134.014 102.161C134.404 102.417 134.845 102.552 135.299 102.574C135.503 102.58 135.823 102.549 136.098 102.505C136.381 102.459 136.665 102.401 136.941 102.308C137.218 102.216 137.497 102.118 137.762 101.989C137.895 101.926 138.026 101.861 138.153 101.792L138.336 101.687L138.421 101.636C138.445 101.624 138.483 101.597 138.478 101.607L140.099 103.408L140.099 103.409Z" fill="#000072"/>
<path d="M139.533 112.575C139.24 112.56 132.348 112.177 130.088 108.149C128.962 106.143 129.176 103.699 130.722 100.888L132.85 102.052C131.734 104.082 131.517 105.735 132.205 106.965C133.533 109.339 138.032 110.075 139.653 110.158L139.533 112.576L139.533 112.575Z" fill="#000072"/>
<path d="M118.089 138.701C117.999 138.488 118.007 138.479 117.977 138.388L117.923 138.19C117.891 138.066 117.865 137.944 117.844 137.827C117.797 137.591 117.761 137.364 117.724 137.136C117.652 136.685 117.605 136.235 117.559 135.79C117.474 134.897 117.428 134.009 117.395 133.121C117.343 131.346 117.325 129.576 117.625 127.778C117.968 128.625 118.22 129.478 118.455 130.332C118.688 131.186 118.88 132.043 119.09 132.894L119.698 135.435L120.003 136.679C120.055 136.881 120.108 137.083 120.164 137.274L120.247 137.549L120.285 137.667C120.288 137.681 120.33 137.777 120.282 137.664L118.088 138.702L118.089 138.701Z" fill="#000072"/>
<path d="M69.9395 157.331C69.995 157.431 70.0259 157.482 70.0259 157.482C70.0259 157.482 59.5491 156.037 56.2022 143.373C54.7806 137.982 55.8587 133.999 57.5683 131.202C59.8778 127.423 63.3391 125.808 63.3391 125.808C76.3825 127.254 72.9316 139.659 69.4773 145.257C66.3285 150.357 69.3698 156.31 69.9388 157.331H69.9395Z" fill="#00A4FF"/>
<g opacity="0.3">
<path opacity="0.3" d="M69.9394 157.331C62.9036 153.182 65.4638 145.024 67.2485 141.098C67.8673 139.738 67.795 138.172 67.0912 136.853C67.08 136.832 67.0687 136.811 67.0575 136.79C66.3425 135.433 64.9595 134.537 63.4254 134.43C60.1144 134.2 58.4111 132.545 57.5682 131.202C59.8777 127.423 63.3391 125.808 63.3391 125.808C76.3824 127.254 72.9315 139.659 69.4772 145.257C66.3284 150.357 69.3697 156.31 69.9387 157.331H69.9394Z" fill="#000072"/>
</g>
<g opacity="0.7">
<path opacity="0.7" d="M69.603 156.679C66.2414 155.13 61.404 151.594 59.3235 143.718C57.9019 138.328 58.9801 134.345 60.6897 131.548C62.5524 128.5 65.1639 126.861 66.1044 126.34C65.2784 126.102 64.359 125.922 63.3391 125.809C63.3391 125.809 59.8777 127.424 57.5683 131.203C55.8587 134 54.7798 137.983 56.2021 143.373C59.549 156.038 70.0258 157.483 70.0258 157.483C70.0258 157.483 69.9949 157.431 69.9394 157.331C69.8643 157.196 69.7449 156.973 69.6037 156.679H69.603Z" fill="white"/>
</g>
<path d="M70.0265 158.692C69.971 158.692 69.9156 158.689 69.8601 158.681C69.3993 158.618 58.5397 156.973 55.0299 143.679C51.4695 130.193 62.7098 124.767 62.8236 124.714C63.0265 124.619 63.252 124.584 63.4726 124.607C68.1217 125.122 71.2662 126.989 72.8178 130.157C75.404 135.437 72.5846 142.532 70.5105 145.892C67.4783 150.805 71.0295 156.798 71.0661 156.858C71.307 157.257 71.2971 157.759 71.0394 158.148C70.8125 158.491 70.4304 158.692 70.0265 158.692V158.692ZM63.5625 127.055C61.9477 127.935 54.6091 132.58 57.3772 143.063C59.5153 151.161 64.7474 154.371 67.8245 155.587C66.8553 152.93 65.992 148.594 68.4426 144.623C70.7949 140.812 72.4842 134.993 70.6355 131.218C69.5103 128.921 67.1313 127.521 63.5625 127.055V127.055Z" fill="#000072"/>
<path d="M66.327 126.723C66.2132 126.952 66.0727 127.253 65.9484 127.532C65.8199 127.815 65.6998 128.107 65.5754 128.396L65.2271 129.277C65.1203 129.576 65.0044 129.871 64.9047 130.172C64.4818 131.37 64.132 132.601 63.8658 133.853C63.79 134.165 63.724 134.479 63.6755 134.795L63.5118 135.746C63.4318 136.383 63.3243 137.025 63.2723 137.672C63.1087 138.97 63.0953 140.278 63.0033 141.646C62.4835 140.392 62.1148 139.055 61.9617 137.691C61.8507 137.008 61.8458 136.322 61.8149 135.631C61.8057 135.285 61.8324 134.942 61.8395 134.596C61.8458 134.25 61.8697 133.906 61.9048 133.561C62.0165 132.181 62.2665 130.811 62.6381 129.471C62.8298 128.803 63.0412 128.138 63.2969 127.487C63.429 127.163 63.5568 126.837 63.7099 126.518C63.8567 126.189 64.0112 125.894 64.2121 125.537L66.327 126.725V126.723Z" fill="#000072"/>
<path d="M100.458 129.474C100.458 129.474 90.8727 147.26 78.0513 142.592C65.2335 137.924 70.0266 125.809 70.0266 125.809C72.5825 123.357 74.9615 122.849 77.698 123.472C80.0876 124.018 82.7475 125.429 86.0424 127.171C91.4873 130.048 97.1092 129.857 99.3948 129.622C100.075 129.55 100.46 129.474 100.46 129.474H100.458Z" fill="#00A4FF"/>
<g opacity="0.3">
<path opacity="0.3" d="M100.458 129.474C100.458 129.474 90.8727 147.26 78.0513 142.592C65.2335 137.924 70.0266 125.809 70.0266 125.809C72.5825 123.357 74.9615 122.849 77.698 123.472C77.4676 124.834 76.9725 126.509 75.928 128.073C73.0075 132.443 75.8767 138.391 81.1411 138.567C82.3134 138.607 83.6578 138.494 85.1995 138.183C91.3658 136.941 96.1652 133.101 99.3941 129.622C100.074 129.55 100.459 129.474 100.459 129.474H100.458Z" fill="#000072"/>
</g>
<path d="M82.3562 144.576C80.7717 144.576 79.1941 144.295 77.6355 143.727C73.4387 142.199 70.5547 139.748 69.0643 136.441C66.6684 131.127 68.8044 125.598 68.8971 125.365C68.961 125.203 69.0594 125.058 69.1851 124.936C74.5977 119.75 79.3493 122.263 86.5446 126.067L86.6099 126.101C93.1828 129.576 100.158 128.298 100.228 128.285C100.687 128.197 101.158 128.38 101.436 128.757C101.713 129.134 101.749 129.635 101.528 130.046C101.426 130.235 98.9951 134.703 94.9072 138.651C90.8432 142.576 86.5769 144.576 82.3562 144.576ZM71.0731 126.488C70.7338 127.511 69.5573 131.653 71.2873 135.468C72.5025 138.147 74.9187 140.161 78.4685 141.454C87.6452 144.793 95.2436 135.27 98.1361 130.93C95.2457 131.067 90.3178 130.801 85.4727 128.24L85.4074 128.205C78.1398 124.364 74.9636 122.912 71.0731 126.489V126.488Z" fill="#000072"/>
<path d="M70.3237 126.911C71.8577 128.152 73.4683 129.431 75.1105 130.543C75.9281 131.113 76.7758 131.622 77.625 132.102L78.2698 132.441L78.923 132.741C79.3669 132.937 79.8319 133.134 80.2948 133.304C81.2241 133.65 82.1744 133.933 83.1409 134.152C84.108 134.365 85.0935 134.493 86.0888 134.535C86.5854 134.545 87.0862 134.544 87.587 134.51C88.0871 134.474 88.5858 134.403 89.0845 134.312C90.0762 134.115 91.0715 133.818 91.986 133.299C91.2527 134.064 90.3052 134.619 89.3162 135.051C88.3203 135.477 87.2533 135.765 86.1667 135.912C85.0802 136.059 83.9718 136.094 82.8754 136.002C81.7775 135.924 80.6909 135.732 79.6275 135.465C79.093 135.332 78.5725 135.188 78.0436 135.01L77.2506 134.717L76.4829 134.385C75.4694 133.93 74.5233 133.372 73.6039 132.792C72.6936 132.196 71.8254 131.554 70.9959 130.867C70.1643 130.173 69.3839 129.468 68.6274 128.644L70.3216 126.91L70.3237 126.911Z" fill="#000072"/>
<path d="M67.4628 124.92C67.4628 124.92 61.515 133.44 48.5862 127.171C39.0456 122.545 39.2915 119.547 40.0824 118.292C40.3598 117.846 40.7068 117.621 40.7068 117.621C38.5533 114.585 40.2179 111.518 40.2179 111.518C43.0928 114.679 49.0582 116.84 52.4324 117.866C53.9166 118.316 54.8985 118.547 54.8985 118.547L67.4635 124.92L67.4628 124.92Z" fill="#00A4FF"/>
<g opacity="0.3">
<path opacity="0.3" d="M67.4628 124.92C67.4628 124.92 61.515 133.44 48.5862 127.171C39.0456 122.545 39.2915 119.547 40.0824 118.292C41.1774 119.86 43.6048 122.084 48.8756 123.268C50.9069 123.725 52.7759 122.049 52.5336 119.986C52.4563 119.33 52.4142 118.617 52.4324 117.866C53.9166 118.316 54.8985 118.547 54.8985 118.547L67.4635 124.92L67.4628 124.92Z" fill="#000072"/>
</g>
<path d="M57.4707 130.669C54.822 130.669 51.6872 130.02 48.0552 128.259C41.8152 125.233 38.6994 122.439 38.5294 119.717C38.4704 118.776 38.7893 118.01 39.1861 117.456C37.4512 114.155 39.0758 111.083 39.1517 110.943C39.3392 110.598 39.6827 110.364 40.0732 110.317C40.4617 110.27 40.8529 110.415 41.1177 110.706C44.9499 114.919 55.0741 117.345 55.176 117.37C55.2701 117.391 55.3614 117.425 55.4471 117.469L68.0128 123.843C68.3253 124.001 68.5543 124.287 68.64 124.626C68.7257 124.966 68.6597 125.325 68.4588 125.612C68.411 125.682 64.8148 130.669 57.4707 130.669V130.669ZM40.8388 113.734C40.7531 114.625 40.8852 115.777 41.6993 116.924C41.8896 117.192 41.9627 117.526 41.9008 117.85C41.839 118.173 41.6473 118.457 41.3705 118.637C41.341 118.659 40.9021 118.992 40.954 119.596C41.0222 120.39 41.9535 122.61 49.1165 126.083C58.2131 130.493 63.4747 127.172 65.5025 125.284L54.4729 119.69C53.2627 119.393 45.4402 117.375 40.8388 113.734Z" fill="#000072"/>
<path d="M67.7311 126.1C67.1488 126.193 66.6522 126.242 66.1219 126.279C65.6 126.322 65.0803 126.335 64.5619 126.348C64.0435 126.357 63.5259 126.343 63.0103 126.336C62.4948 126.304 61.9792 126.283 61.4665 126.242C59.4141 126.075 57.3877 125.686 55.433 125.1L54.6997 124.884C54.4553 124.815 54.2193 124.712 53.9797 124.627C53.5028 124.446 53.0238 124.278 52.5532 124.088C51.6338 123.65 50.6947 123.271 49.8307 122.738C48.0432 121.79 46.4586 120.527 44.9449 119.234C46.5878 120.372 48.2651 121.449 50.1012 122.196C50.989 122.628 51.9421 122.903 52.8644 123.234C53.3364 123.371 53.8147 123.486 54.2874 123.613C54.5255 123.671 54.758 123.747 54.9996 123.789L55.7217 123.925C57.6406 124.294 59.5918 124.467 61.5318 124.428C62.0165 124.418 62.5004 124.388 62.9829 124.37C63.4648 124.327 63.9459 124.292 64.4235 124.236C64.9005 124.174 65.3767 124.114 65.8452 124.028C66.3066 123.95 66.7969 123.845 67.1938 123.74L67.7318 126.1H67.7311Z" fill="#000072"/>
<path d="M114.282 94.8126L114.278 94.8161C96.22 106.371 74.4994 125.329 74.4994 125.329L70.0259 116.92C71.6077 115.433 73.1993 114.043 74.7874 112.75C94.6804 96.5205 114.282 94.8126 114.282 94.8126Z" fill="#00A4FF"/>
<g opacity="0.3">
<path opacity="0.3" d="M114.278 94.8161C96.22 106.371 74.4994 125.329 74.4994 125.329L70.0259 116.92C71.6077 115.433 73.1993 114.043 74.7874 112.75C74.7972 112.763 74.807 112.777 74.8169 112.79C76.2273 114.707 78.9181 115.136 80.837 113.723C87.2589 108.998 100.764 99.7507 114.278 94.8161Z" fill="#000072"/>
</g>
<path d="M74.4993 126.539C74.4263 126.539 74.3525 126.532 74.2795 126.519C73.915 126.452 73.601 126.223 73.4268 125.896L68.9533 117.486C68.6976 117.004 68.7953 116.412 69.1928 116.038C90.6556 95.8664 113.224 93.6887 114.175 93.6053C114.726 93.557 115.249 93.8932 115.43 94.4197C115.61 94.9463 115.406 95.5282 114.936 95.8293C97.1626 107.205 75.515 126.051 75.2987 126.24C75.076 126.434 74.7908 126.539 74.4993 126.539V126.539ZM71.5339 117.171L74.8576 123.419C79.1147 119.769 94.3783 106.867 108.698 97.0611C100.79 98.9405 85.8309 104.011 71.5339 117.171Z" fill="#000072"/>
<path d="M71.2017 119.743C72.9773 118.337 74.7607 117.066 76.5939 115.817C78.4222 114.574 80.2793 113.381 82.1708 112.247C84.0596 111.109 85.9743 110.019 87.9241 108.999C89.8627 107.96 91.8518 107.018 93.8445 106.102C91.9431 107.199 90.0579 108.313 88.2324 109.521C86.3957 110.708 84.6039 111.96 82.8458 113.254C81.0849 114.543 79.3669 115.885 77.6875 117.269C76.0151 118.648 74.3519 120.087 72.8164 121.551L71.2017 119.743V119.743Z" fill="#000072"/>
<path d="M68.1322 129.366C62.2223 134.812 54.718 126.03 54.718 120.066C54.718 117.05 56.4557 116.045 58.1724 115.785C59.8511 115.529 61.5157 115.992 61.5157 115.992C61.6126 115.857 61.7103 115.726 61.8072 115.598C65.9239 110.191 74.6286 112.873 75.128 119.643C75.9153 130.282 68.1329 129.365 68.1329 129.365L68.1322 129.366Z" fill="#00A4FF"/>
<g opacity="0.3">
<path opacity="0.3" d="M75.1281 119.645C74.885 116.364 72.7147 114.048 70.0744 113.142C70.5618 114.029 70.6517 115.09 70.9664 116.187C74.0267 126.865 66.2106 126.261 64.3541 125.977C64.142 125.945 63.9418 126.079 63.8885 126.287C63.0639 129.473 59.4339 127.951 57.3949 127.054C60.1124 130.611 64.4342 132.772 68.1309 129.365C68.1309 129.365 75.9161 130.283 75.1281 119.644V119.645Z" fill="#000072"/>
</g>
<g opacity="0.3">
<path opacity="0.3" d="M65.2714 122.476C65.2714 122.476 58.6022 122.224 58.1724 115.786C59.8511 115.53 61.5157 115.993 61.5157 115.993C61.5157 115.993 60.347 119.806 65.2714 122.476Z" fill="#000072"/>
</g>
<g opacity="0.7">
<path opacity="0.7" d="M56.4523 122.14C56.4523 119.125 58.19 118.12 59.9066 117.86C60.772 117.728 61.4617 117.856 61.9267 118.011C62.3931 118.166 62.9044 118.11 63.3167 117.844C63.4263 117.773 63.512 117.711 63.5408 117.673C66.3201 114.023 71.1877 114.064 74.2122 116.556C71.7826 112.198 65.2195 111.116 61.8066 115.599C61.7097 115.728 61.6127 115.858 61.5151 115.994C61.5151 115.994 59.8505 115.53 58.1717 115.786C56.4551 116.045 54.7174 117.052 54.7174 120.067C54.7174 122.846 56.3469 126.236 58.6852 128.514C57.3148 126.508 56.4516 124.163 56.4516 122.141L56.4523 122.14Z" fill="white"/>
</g>
<path d="M64.0809 132.285C63.1003 132.285 62.0959 132.068 61.0922 131.63C56.9783 129.836 53.5029 124.541 53.5029 120.067C53.5029 118.077 54.1512 116.577 55.431 115.608C57.2375 114.239 59.7177 114.422 61.0122 114.645C63.2183 111.924 66.6713 110.862 70.0961 111.872C73.62 112.912 76.0699 115.928 76.3389 119.554C76.6417 123.647 75.7826 126.688 73.7858 128.592C71.9279 130.365 69.634 130.593 68.5726 130.593H68.5635C67.1995 131.714 65.6704 132.284 64.0809 132.284V132.285ZM59.2527 116.918C58.4182 116.918 57.5206 117.064 56.8948 117.539C56.2458 118.033 55.9304 118.86 55.9304 120.067C55.9304 123.558 58.8544 128.013 62.0643 129.413C63.9678 130.243 65.7322 129.928 67.3062 128.477C67.5675 128.237 67.9194 128.123 68.2727 128.164C68.2875 128.165 70.5176 128.38 72.1274 126.825C73.561 125.44 74.1629 123.054 73.9171 119.734C73.6825 116.562 71.4328 114.792 69.4064 114.194C67.4306 113.611 64.6498 113.866 62.7723 116.33C62.6838 116.446 62.596 116.566 62.5082 116.69C62.2132 117.108 61.6857 117.295 61.192 117.159C60.8092 117.054 60.0604 116.918 59.252 116.918H59.2527Z" fill="#000072"/>
<path d="M62.6999 116.263L62.6599 116.625C62.6444 116.764 62.6311 116.903 62.6241 117.045C62.6016 117.327 62.5995 117.61 62.6037 117.893C62.6171 118.459 62.7027 119.014 62.8819 119.556C63.0624 120.096 63.3426 120.633 63.7626 121.112C63.953 121.373 64.2066 121.577 64.4496 121.819C64.7017 122.047 64.989 122.236 65.2693 122.476C64.9181 122.444 64.5472 122.416 64.189 122.329C63.8406 122.22 63.462 122.135 63.1312 121.941C62.4281 121.622 61.8023 121.078 61.3155 120.423C60.8225 119.768 60.4909 118.989 60.3259 118.194C60.2943 117.995 60.2521 117.794 60.2317 117.593C60.2177 117.392 60.1959 117.19 60.198 116.987C60.1945 116.786 60.2058 116.583 60.2233 116.379C60.2458 116.165 60.269 115.992 60.3336 115.723L62.6999 116.263Z" fill="#000072"/>
<path d="M67.7579 130.517C67.5324 130.424 67.3912 130.338 67.2241 130.235C67.0646 130.134 66.9101 130.028 66.7633 129.911C66.4683 129.682 66.1951 129.423 65.9471 129.143C65.6957 128.869 65.4807 128.553 65.3016 128.228C65.1232 127.9 65.0038 127.534 64.9504 127.17C65.2939 127.324 65.6037 127.453 65.9134 127.56C66.2211 127.669 66.5175 127.762 66.8153 127.843C67.1131 127.922 67.4067 127.99 67.6961 128.053L68.1252 128.141C68.2573 128.167 68.4209 128.201 68.5052 128.214L67.7586 130.517H67.7579Z" fill="#000072"/>
</g>
<defs>
<clipPath id="clip0_12_1255">
<rect width="187" height="214" fill="white"/>
</clipPath>
</defs>
</svg>
